<?xml version="1.0" standalone="no"?>
<!DOCTYPE svg PUBLIC "-//W3C//DTD SVG 20010904//EN"
 "http://www.w3.org/TR/2001/REC-SVG-20010904/DTD/svg10.dtd">
<svg version="1.0" xmlns="http://www.w3.org/2000/svg"
 width="719.000000pt" height="719.000000pt" viewBox="0 0 719.000000 719.000000"
 preserveAspectRatio="xMidYMid meet">
<metadata>
Created by potrace 1.14, written by Peter Selinger 2001-2017
</metadata>
<g transform="translate(0.000000,719.000000) scale(0.100000,-0.100000)"
fill="#000000" stroke="none">
<path d="M1 7103 c1 -49 8 -99 15 -113 12 -26 8 -76 -7 -86 -5 -3 -9 -274 -9
-614 l0 -609 83 -4 82 -3 -82 -2 c-65 -2 -83 -5 -83 -16 0 -10 7 -13 23 -10
12 3 57 5 99 4 43 0 115 4 160 10 55 7 105 8 148 2 36 -6 72 -6 80 -1 13 7 13
8 0 9 -12 0 -10 4 4 15 25 19 46 19 46 0 0 -11 11 -15 40 -15 22 0 40 -4 40
-9 0 -5 16 -15 35 -21 33 -11 85 -52 85 -67 0 -4 9 -16 20 -28 17 -18 18 -25
8 -64 -12 -45 -1 -65 29 -54 9 4 13 -6 13 -36 0 -30 4 -41 15 -41 11 0 15 -11
15 -40 0 -53 18 -51 23 3 l4 42 1 -42 c1 -24 7 -43 12 -43 6 0 10 -18 10 -40
l0 -39 68 2 c63 2 67 1 68 -21 1 -18 1 -19 -3 -2 -3 16 -12 20 -44 20 -35 0
-39 -3 -39 -25 0 -22 4 -25 39 -25 44 0 51 -10 51 -71 0 -22 -5 -39 -11 -39
-9 0 -10 -17 -4 -57 4 -32 7 -78 7 -101 -1 -37 1 -42 13 -32 11 9 16 4 25 -30
6 -23 9 -56 7 -73 -3 -27 -4 -25 -5 11 -1 23 -7 42 -13 42 -18 0 -6 -125 14
-148 9 -10 18 -32 18 -48 1 -22 3 -24 6 -8 3 16 9 20 24 17 10 -3 19 -11 19
-19 0 -8 -6 -11 -15 -8 -9 4 -15 0 -15 -10 0 -9 -6 -16 -14 -16 -11 0 -13 -9
-9 -37 3 -21 10 -41 15 -44 6 -3 0 -9 -11 -12 -17 -4 -20 -12 -17 -44 1 -21 7
-46 11 -57 4 -10 4 -21 -2 -25 -17 -10 -34 -49 -24 -55 5 -3 11 4 14 16 4 12
9 19 12 16 4 -3 -1 -21 -11 -39 -11 -22 -17 -59 -18 -105 -1 -40 -5 -67 -9
-61 -5 7 -5 -8 -1 -32 4 -29 3 -41 -4 -37 -7 4 -10 -4 -8 -21 2 -16 -3 -33
-13 -41 -12 -10 -13 -15 -3 -18 16 -7 16 -31 -1 -37 -9 -4 -9 -6 1 -6 7 -1 16
7 19 16 4 10 17 27 30 39 13 12 23 29 23 38 0 9 5 16 11 16 5 0 8 4 4 10 -3 5
-2 17 3 27 11 21 31 94 39 138 3 19 13 35 26 40 11 6 22 17 24 25 3 10 -2 8
-12 -5 -16 -19 -16 -18 -10 20 4 22 12 45 17 50 7 7 8 2 3 -12 -4 -17 -2 -23
8 -23 8 0 20 -6 26 -14 7 -8 21 -12 33 -8 18 4 20 2 16 -21 -3 -16 -1 -24 5
-20 5 3 6 -3 2 -16 -4 -13 -2 -21 5 -21 7 0 10 -8 7 -20 -3 -11 -1 -18 4 -14
5 3 9 -19 9 -50 0 -30 3 -62 7 -72 5 -13 3 -15 -7 -9 -9 5 -11 4 -6 -4 4 -6 9
-21 11 -34 3 -12 9 -44 14 -72 5 -27 7 -54 4 -58 -3 -5 1 -13 8 -18 9 -5 14
-25 13 -53 0 -25 2 -43 6 -41 13 8 34 -152 35 -264 1 -67 6 -116 12 -118 5 -2
15 22 23 54 7 32 16 74 21 93 5 19 9 47 9 63 0 15 5 27 11 27 6 0 8 8 4 19 -3
10 -1 29 4 42 5 13 13 49 16 79 5 46 9 56 26 57 15 1 19 -3 14 -17 -3 -10 -1
-21 5 -25 5 -3 10 -1 10 5 0 6 5 8 10 5 6 -4 8 -11 5 -16 -4 -5 0 -9 8 -9 11
0 13 7 10 23 -3 12 -2 18 3 14 4 -4 10 -22 11 -40 2 -18 10 -70 18 -117 8 -47
22 -152 30 -235 8 -82 17 -164 20 -182 5 -25 2 -33 -14 -38 -12 -4 -18 -12
-14 -21 4 -10 -2 -14 -20 -14 -14 0 -27 -6 -30 -12 -3 -10 -9 -10 -26 0 -18
11 -24 10 -38 -3 -8 -9 -22 -14 -30 -11 -8 3 -26 6 -39 6 -15 0 -24 6 -24 16
0 12 -6 15 -26 10 -15 -4 -32 -13 -40 -20 -14 -14 -147 -31 -164 -21 -5 3 -10
2 -10 -4 0 -5 -24 -8 -57 -6 -32 3 -50 2 -40 -1 35 -11 16 -26 -30 -23 -72 4
-111 -8 -128 -41 -8 -16 -15 -33 -15 -37 0 -4 44 -9 97 -10 104 -2 133 9 133
49 0 21 32 38 38 20 2 -7 12 -12 23 -12 10 0 19 -7 19 -15 0 -8 13 -24 28 -35
27 -20 28 -24 21 -73 -13 -89 -13 -87 31 -87 22 0 40 -4 40 -10 0 -5 18 -10
41 -10 28 0 39 -4 37 -12 -3 -9 -31 -14 -81 -16 -59 -2 -77 -6 -77 -17 0 -11
12 -15 40 -15 22 0 40 5 40 10 0 6 17 10 38 10 53 1 116 39 120 73 4 29 2 28
122 31 32 1 36 4 42 36 4 22 5 12 3 -28 -3 -48 0 -62 9 -59 7 3 20 -3 30 -14
18 -22 21 -39 6 -39 -5 0 -10 -11 -10 -25 0 -31 20 -33 21 -2 1 18 2 17 10 -7
5 -20 4 -34 -3 -44 -10 -11 -9 -17 5 -27 11 -8 23 -42 33 -86 19 -94 22 -105
34 -93 5 5 10 46 11 91 2 45 6 80 11 77 4 -3 8 -12 8 -20 0 -8 5 -14 10 -14 6
0 10 4 10 9 0 5 7 11 14 14 10 4 13 1 9 -9 -10 -26 14 -14 26 13 8 18 9 29 2
31 -5 2 -7 10 -4 19 4 11 10 6 19 -17 16 -38 18 -51 4 -30 -9 14 -10 13 -10
-17 0 -5 6 -8 13 -8 7 0 13 -15 14 -35 l1 -35 -8 30 -8 30 -1 -27 c0 -16 -4
-27 -8 -27 -21 3 -33 -2 -27 -12 4 -8 9 -7 15 2 6 10 9 3 10 -21 2 -30 3 -31
6 -7 4 27 17 35 28 18 3 -5 10 -33 15 -62 9 -45 8 -55 -7 -72 -17 -19 -17 -19
2 -14 11 4 49 9 85 13 36 3 69 9 73 14 9 8 -10 50 -62 140 -18 30 -39 71 -47
90 -9 19 -29 62 -45 95 -48 100 -110 323 -128 465 -6 47 -12 167 -14 268 -3
205 -8 194 79 167 69 -21 117 -19 214 9 74 22 85 23 95 9 9 -12 14 -8 30 27
16 36 40 60 60 60 3 0 3 -17 0 -37 -5 -33 -4 -35 6 -18 7 11 13 22 15 24 2 2
13 -7 24 -20 l20 -24 -15 37 c-14 36 -14 40 12 98 16 33 32 60 36 60 4 0 5
-21 2 -47 -5 -46 -5 -47 10 -26 44 63 99 175 159 324 36 91 66 171 66 178 0 6
5 11 10 11 6 0 10 -47 10 -120 0 -66 3 -120 8 -120 9 0 36 45 75 125 26 55 75
188 147 407 16 48 32 93 36 100 5 7 10 24 12 37 2 13 9 38 17 55 14 30 14 30
10 -24 -3 -30 -7 -91 -10 -135 -19 -307 -18 -301 -55 -314 -36 -12 -39 -31 -6
-31 14 0 28 -5 31 -10 4 -7 11 -7 18 -2 7 5 86 12 177 15 91 3 181 10 200 16
109 30 154 18 53 -13 -64 -21 -220 -98 -243 -122 -8 -8 48 15 124 52 90 44
154 69 179 70 22 1 43 7 46 13 4 6 40 18 81 27 l74 15 35 -43 c20 -23 52 -57
71 -75 l35 -33 3 26 c2 14 -1 39 -7 56 -6 17 -11 42 -11 55 0 22 3 24 47 21
46 -3 48 -4 83 -64 48 -82 77 -117 93 -111 14 5 37 155 37 241 0 25 3 46 8 46
4 0 16 -15 28 -33 12 -17 36 -54 54 -82 18 -27 35 -66 37 -85 2 -21 13 -43 27
-55 29 -24 47 -59 42 -77 -6 -18 -16 -86 -19 -127 -2 -41 0 -41 -208 -75 -237
-40 -350 -49 -531 -43 -93 3 -168 2 -168 -1 0 -4 9 -13 20 -20 11 -7 20 -18
20 -26 0 -12 75 -43 160 -66 19 -5 101 -10 181 -10 133 0 154 3 245 30 54 16
111 30 125 30 14 0 51 13 82 30 31 17 58 30 60 30 5 0 -13 -108 -29 -172 -8
-32 -14 -65 -14 -74 0 -8 -16 -47 -35 -86 -20 -39 -34 -72 -32 -74 2 -2 10 8
18 24 26 51 129 202 139 202 5 0 11 10 13 23 2 12 2 6 0 -13 -2 -19 -5 -51 -7
-70 -15 -179 -52 -335 -108 -463 -16 -38 -27 -75 -24 -83 3 -8 -2 -26 -11 -40
-26 -40 -52 -86 -67 -119 -8 -16 -42 -63 -76 -103 -34 -41 -59 -76 -57 -78 3
-3 49 34 103 82 154 135 249 238 325 350 27 40 53 75 58 78 5 3 8 -71 7 -177
-1 -210 5 -387 14 -387 20 0 48 34 54 67 17 104 24 134 31 141 4 4 5 -31 1
-78 -4 -47 -3 -90 1 -95 5 -6 26 -22 49 -37 33 -21 45 -38 61 -85 12 -32 24
-75 27 -96 7 -39 26 -42 26 -4 0 16 3 18 12 9 16 -16 21 -170 11 -352 -4 -80
-5 -165 -2 -190 l6 -45 8 33 c4 17 13 32 20 32 14 0 -13 -155 -36 -203 -11
-25 -17 -28 -45 -23 -29 6 -31 5 -27 -17 6 -31 -5 -34 -97 -28 l-75 6 56 18
c56 17 98 47 67 47 -8 0 -29 -5 -46 -11 -17 -6 -165 -44 -329 -84 -164 -40
-383 -99 -488 -130 -193 -57 -453 -125 -480 -125 -18 0 -15 42 3 48 7 2 12 10
12 17 0 20 77 83 150 121 77 41 142 85 135 92 -7 7 -94 -28 -102 -42 -9 -13
-67 -38 -133 -56 -139 -39 -164 -56 -154 -106 5 -28 3 -33 -18 -37 -23 -4 -23
-4 2 -6 14 -1 36 -8 50 -16 l25 -13 -25 -10 c-68 -26 -105 -24 -167 7 -33 17
-65 31 -70 31 -5 0 -29 20 -53 45 -24 24 -45 43 -48 41 -6 -6 25 -61 42 -75
19 -16 22 -46 4 -34 -7 4 -21 6 -31 5 -15 -3 -17 1 -11 24 5 20 4 25 -5 20 -7
-4 -17 -3 -24 3 -8 6 -18 6 -27 1 -22 -14 -36 -12 -18 2 9 7 19 23 23 36 5 18
3 22 -16 22 -16 0 -20 3 -13 10 8 8 38 7 100 -1 70 -9 106 -9 164 0 41 7 83
14 92 15 10 1 21 5 24 9 4 4 20 7 35 7 29 0 46 14 29 25 -5 3 -48 -1 -94 -10
-116 -21 -208 -21 -285 0 -55 16 -74 28 -147 98 -46 43 -100 102 -121 130 -21
29 -40 54 -43 57 -14 11 -72 102 -68 106 2 2 21 6 41 8 47 6 58 13 50 32 -3 8
-6 41 -7 72 l-1 57 -34 3 c-22 2 -52 -5 -79 -18 -56 -29 -103 -21 -149 25 -38
38 -43 77 -17 127 32 63 29 63 -396 8 -212 -27 -434 -56 -495 -64 -60 -9 -191
-25 -290 -37 -99 -12 -186 -23 -194 -25 -11 -4 -13 -29 -9 -132 3 -70 10 -139
16 -153 9 -23 8 -28 -14 -38 -46 -21 -60 -14 -82 39 l-21 50 -61 0 c-98 0
-210 45 -266 107 -38 41 -74 30 -162 -50 -24 -21 -47 -36 -50 -32 -4 4 7 18
23 32 17 14 41 34 55 46 15 13 20 22 12 25 -6 2 -29 -10 -49 -27 -37 -30 -63
-40 -63 -22 0 5 16 21 35 35 19 15 35 30 35 35 0 4 -17 7 -37 7 -32 -1 -39 3
-41 22 -2 12 -7 22 -12 22 -17 0 2 -116 41 -249 21 -74 40 -135 41 -136 2 -2
50 -26 107 -55 90 -45 105 -50 113 -36 5 9 35 33 66 54 60 41 86 49 472 152
107 28 227 61 265 72 54 16 85 19 137 14 65 -6 207 -44 258 -69 31 -16 70 -73
70 -103 0 -35 17 -29 18 6 1 33 34 69 64 70 10 0 32 8 50 18 39 21 90 26 147
13 29 -6 41 -6 41 3 0 7 4 6 9 -3 7 -11 10 -11 15 0 3 8 3 4 0 -8 -4 -19 1
-24 36 -34 22 -7 40 -18 40 -25 0 -21 31 -53 46 -47 8 3 14 15 14 28 0 12 7
36 15 51 10 20 15 23 15 12 0 -10 5 -18 11 -18 7 0 9 10 5 26 -6 22 -5 24 7
13 7 -8 17 -27 21 -43 9 -38 21 -24 22 28 2 50 30 116 51 116 8 0 11 -5 7 -12
-5 -8 0 -9 14 -6 12 4 22 3 22 0 0 -4 14 -23 30 -42 17 -19 40 -53 51 -74 11
-22 36 -58 54 -79 19 -22 32 -44 28 -50 -3 -6 -2 -7 4 -4 13 8 126 -107 130
-134 3 -17 -1 -20 -14 -15 -10 4 -14 4 -10 0 4 -4 1 -14 -6 -23 -11 -14 -10
-15 7 -1 18 14 19 14 7 -8 -7 -12 -16 -20 -22 -17 -5 4 -9 1 -9 -4 0 -6 5 -11
11 -11 5 0 7 -5 4 -10 -4 -6 -10 -8 -14 -6 -4 3 -14 -5 -21 -18 -7 -14 -25
-27 -43 -30 -35 -7 -67 -32 -67 -53 0 -7 -7 -13 -16 -13 -9 0 -12 -5 -8 -12 4
-6 1 -16 -7 -22 -8 -6 -21 -26 -28 -44 -13 -30 -31 -44 -31 -22 0 6 -5 10 -10
10 -7 0 -7 -7 0 -21 7 -13 8 -25 2 -32 -14 -17 -25 -87 -14 -87 8 0 9 -22 3
-51 0 -4 -12 -10 -26 -13 -14 -4 -25 -11 -25 -17 0 -8 5 -7 15 1 12 10 15 10
15 -4 0 -9 -3 -16 -7 -16 -5 0 -16 -14 -25 -31 -10 -17 -22 -27 -28 -24 -7 4
-7 -3 0 -20 10 -25 0 -64 -14 -57 -15 6 -26 1 -26 -12 0 -8 -6 -16 -13 -19 -9
-3 -9 -9 0 -25 14 -24 6 -37 -14 -20 -7 6 -17 8 -20 4 -11 -11 -9 -96 2 -92 6
2 9 8 8 14 -1 5 4 13 12 16 13 5 13 2 0 -24 -9 -17 -20 -30 -25 -30 -6 0 -10
-4 -10 -10 0 -5 6 -7 14 -4 11 4 13 0 9 -15 -3 -12 -10 -24 -16 -28 -6 -3 -7
-1 -3 5 4 7 2 10 -7 6 -8 -3 -14 -19 -15 -37 0 -18 -9 -37 -19 -45 -17 -13
-16 -14 6 -7 17 5 22 4 19 -6 -3 -8 -1 -22 4 -32 5 -10 5 -17 -1 -17 -5 0 -13
9 -16 20 -6 17 -8 18 -21 6 -16 -16 -19 -30 -5 -21 5 3 12 1 16 -5 3 -5 -3
-10 -14 -10 -13 0 -21 7 -21 18 0 9 -4 13 -8 7 -4 -5 -14 -9 -22 -9 -8 1 -25
2 -38 3 -13 0 -20 5 -17 11 3 5 -1 10 -10 10 -10 0 -13 -5 -9 -12 5 -8 2 -9
-9 -5 -10 4 -46 9 -82 13 -35 4 -63 10 -60 14 2 3 -8 5 -23 3 -45 -6 -234 33
-248 51 -14 20 -30 20 -38 1 -3 -8 -14 -15 -24 -15 -10 0 -24 -6 -30 -12 -10
-10 -15 -10 -23 2 -9 13 -10 12 -5 -3 4 -12 0 -17 -15 -17 -11 0 -17 -4 -14
-10 3 -6 -1 -7 -9 -4 -9 3 -16 10 -16 14 0 10 -37 7 -62 -4 -9 -4 -25 -3 -37
3 -31 17 -61 14 -61 -6 0 -16 -2 -16 -11 -3 -8 12 -9 9 -5 -12 5 -21 3 -26 -7
-22 -8 3 -22 -7 -31 -22 -13 -19 -21 -23 -29 -15 -16 16 -27 13 -27 -8 0 -14
-10 -20 -40 -25 -22 -3 -40 -11 -40 -17 0 -5 -4 -8 -9 -4 -5 3 -12 1 -16 -5
-3 -5 3 -10 14 -10 12 0 21 -4 21 -9 0 -5 -9 -7 -20 -4 -15 4 -19 2 -15 -9 8
-20 -21 -27 -80 -20 -31 3 -50 1 -54 -7 -6 -9 -15 -9 -37 -1 -16 7 -54 14 -84
17 -64 5 -67 7 -49 30 9 11 10 14 2 9 -9 -5 -13 0 -13 16 -1 32 -24 60 -44 52
-15 -6 -21 5 -17 30 2 10 -29 46 -40 46 -4 0 -9 -8 -11 -17 -3 -15 -6 -14 -17
6 -11 21 -11 23 1 18 8 -3 21 -2 28 3 22 14 -26 33 -50 20 -16 -9 -19 -8 -13
7 5 12 2 15 -10 10 -12 -4 -14 -2 -10 10 5 13 2 15 -11 10 -14 -5 -17 -3 -12
8 3 8 1 15 -4 15 -6 0 -10 7 -10 16 0 8 -5 12 -10 9 -7 -4 -6 -14 1 -28 9 -18
5 -16 -20 8 -18 16 -27 31 -21 33 5 2 10 8 10 14 0 6 -7 8 -15 4 -8 -3 -15 -1
-15 4 0 6 5 10 12 10 6 0 8 3 5 6 -4 4 -13 2 -20 -5 -11 -9 -22 -5 -48 19 -25
21 -29 28 -14 25 13 -3 26 3 37 19 16 22 16 25 1 38 -14 11 -16 11 -11 -3 8
-20 -23 -40 -53 -34 -25 5 -42 18 -19 15 27 -4 53 0 47 7 -4 3 -2 12 4 19 8
10 5 15 -15 20 -37 9 -33 28 4 21 17 -4 30 -2 30 3 0 6 -5 10 -12 10 -9 0 -9
3 0 12 8 8 15 8 25 0 12 -10 14 -7 13 15 -1 23 5 30 33 39 19 6 29 13 22 15
-8 3 -1 11 16 19 31 16 89 62 142 113 25 24 30 26 22 10 -8 -17 -8 -24 1 -29
7 -4 10 -3 5 1 -4 5 -1 18 7 30 20 31 2 59 -19 30 -22 -31 -30 -39 -56 -58
-13 -9 -53 -38 -89 -64 -36 -26 -100 -73 -143 -105 -44 -32 -84 -58 -90 -58
-6 0 -22 11 -36 24 -16 14 -73 38 -143 60 -65 20 -124 39 -133 42 -8 3 -15 1
-15 -4 0 -6 59 -30 131 -54 l131 -43 206 -188 c114 -103 216 -197 228 -208 19
-18 77 -149 70 -157 -2 -1 -62 57 -135 129 -72 72 -131 128 -131 124 0 -19 59
-86 226 -255 101 -102 193 -198 206 -215 12 -16 27 -32 32 -34 5 -2 36 -32 69
-67 l61 -64 256 1 c238 1 253 2 220 16 -23 10 -81 17 -165 21 -106 4 -124 7
-95 15 41 11 196 3 280 -15 43 -9 65 -9 82 -1 55 26 98 43 173 66 44 14 110
37 148 51 37 14 67 21 67 16 0 -6 -8 -10 -17 -11 -14 0 -14 -2 3 -9 18 -7 23
-20 29 -72 6 -46 10 -58 16 -43 4 11 8 14 8 7 1 -10 5 -10 17 2 29 29 28 16
-1 -14 -28 -29 -28 -30 -6 -30 14 0 45 22 83 60 33 33 68 60 79 60 29 0 23
-15 -18 -46 -21 -16 -49 -39 -63 -51 -23 -22 -24 -23 -4 -23 11 0 35 16 54 35
36 37 76 46 87 19 3 -9 0 -20 -8 -25 -9 -6 0 -7 26 -4 22 3 66 7 98 8 54 4 62
7 108 53 28 27 69 80 92 118 54 88 67 96 110 73 18 -10 46 -28 61 -41 l29 -22
-66 -65 c-57 -55 -117 -130 -117 -144 0 -3 99 -5 221 -5 197 0 224 2 247 18
33 23 78 42 162 72 36 12 79 28 95 35 17 7 55 23 85 36 30 13 74 34 98 46 l43
24 -4 -38 c-4 -43 -20 -54 -172 -113 -44 -18 -96 -39 -115 -48 -19 -8 -48 -19
-65 -23 -24 -6 -19 -7 27 -8 31 -1 67 3 80 8 13 4 59 11 103 14 74 6 78 5 50
-8 l-30 -14 50 -1 c28 0 66 5 85 10 61 19 380 100 391 100 6 0 7 -4 4 -10 -8
-13 21 -13 46 0 13 7 19 7 19 0 0 -14 60 -12 65 3 4 8 24 11 63 10 31 -1 95 5
141 13 53 10 100 13 125 9 23 -4 73 -9 111 -11 110 -6 128 -9 169 -27 21 -9
42 -14 48 -11 5 3 19 -5 32 -19 20 -21 29 -24 74 -19 35 3 52 1 52 -7 0 -7 27
-11 80 -11 47 0 80 4 80 10 0 6 14 10 30 10 17 0 30 -4 30 -9 0 -4 12 -8 28
-9 15 0 50 -6 77 -13 34 -8 172 -13 442 -16 359 -3 392 -2 386 13 -8 22 14 34
67 34 53 0 153 -25 158 -40 3 -7 134 -10 388 -10 l384 0 -28 39 c-15 22 -39
45 -53 51 -15 6 -44 27 -64 46 -21 19 -39 34 -42 34 -2 0 -20 12 -39 26 -48
37 -46 72 5 64 21 -3 -9 26 -37 34 -12 4 -20 12 -16 17 3 5 10 6 16 3 6 -4 6
2 -1 15 -14 25 -33 28 -24 4 4 -12 0 -11 -11 5 -18 23 -79 32 -91 12 -10 -16
-32 -12 -88 14 -29 14 -68 30 -86 38 -19 7 -62 27 -95 43 -34 17 -81 37 -106
45 -53 17 -92 39 -85 50 9 15 -44 41 -71 34 -20 -5 -26 -2 -31 15 -3 11 -12
21 -20 21 -8 0 -11 -5 -8 -10 3 -6 0 -10 -8 -10 -21 0 -104 69 -110 92 -3 11
-10 17 -16 13 -6 -3 -9 0 -6 8 4 10 -4 13 -36 11 -23 -1 -36 1 -30 6 10 5 9 9
-3 13 -10 4 -16 1 -16 -9 0 -9 -6 -14 -12 -11 -7 2 -12 10 -10 16 3 15 -15 14
-22 -1 -5 -11 -7 -11 -12 0 -3 6 -10 12 -15 12 -6 0 -7 -5 -4 -10 3 -6 -1 -10
-10 -10 -9 0 -13 5 -10 10 3 6 1 10 -4 10 -6 0 -11 -5 -11 -11 0 -8 -4 -8 -14
0 -11 9 -15 7 -19 -8 -3 -14 -14 -19 -44 -19 -21 0 -45 3 -52 7 -8 5 9 7 38 6
39 -2 51 1 51 12 0 11 -7 13 -30 8 -17 -4 -30 -2 -30 3 0 5 17 13 38 16 20 4
67 14 103 22 64 15 68 15 114 -5 26 -12 52 -21 57 -21 8 0 284 -107 463 -179
148 -60 194 -67 85 -14 -41 20 -77 39 -80 43 -3 4 -20 10 -38 13 -18 4 -39 13
-47 21 -8 7 -31 17 -52 20 -47 8 -183 66 -183 77 0 5 9 9 20 9 12 0 20 6 18
13 -3 16 30 77 42 77 6 0 15 11 22 25 6 13 15 22 20 19 11 -7 61 45 108 112
15 21 15 21 35 1 20 -20 20 -20 -7 -13 -16 3 -28 2 -28 -3 0 -16 61 -25 71
-10 8 12 10 12 18 1 7 -11 15 -9 45 10 38 25 43 36 24 58 -11 12 -10 12 5 1
15 -12 17 -11 17 7 0 15 5 20 15 16 9 -4 15 0 15 10 0 19 16 21 23 4 3 -7 6 4
6 25 1 33 4 38 31 43 16 4 30 11 30 16 0 5 -9 7 -19 3 -11 -3 -22 -1 -26 4 -3
6 6 13 20 17 15 4 25 13 25 25 0 10 6 22 14 26 8 4 16 17 18 28 2 11 10 19 16
17 7 -1 11 1 10 5 -4 15 20 68 41 90 23 24 61 105 61 129 0 8 3 14 8 14 7 0
11 9 51 103 11 26 21 48 22 50 13 21 71 368 64 385 -10 26 -16 6 -20 -64 -3
-37 -9 -70 -14 -73 -5 -4 -11 -24 -13 -46 -2 -22 -7 -45 -10 -50 -3 -6 -11
-37 -18 -69 -7 -33 -15 -54 -19 -47 -4 7 -8 -1 -8 -17 0 -16 -15 -60 -33 -98
-18 -38 -43 -94 -55 -125 -22 -56 -52 -99 -68 -99 -5 0 -6 8 -2 18 5 13 4 14
-6 5 -9 -9 -9 -16 -2 -25 13 -15 2 -48 -21 -67 -9 -7 -16 -19 -16 -26 0 -7 -9
-23 -21 -36 l-20 -24 7 24 c4 15 2 21 -4 17 -6 -3 -17 1 -25 9 -18 17 -47 20
-47 5 0 -5 7 -10 15 -10 8 0 15 -7 15 -15 0 -8 -7 -15 -15 -15 -8 0 -15 5 -15
10 0 6 -5 10 -11 10 -7 0 -9 -10 -7 -25 7 -33 3 -32 -16 7 -20 39 -20 38 2 39
9 0 12 3 6 5 -8 3 -3 21 12 52 47 93 111 248 123 297 7 28 21 86 32 130 11 44
27 107 34 140 8 33 20 85 29 115 15 57 42 456 39 570 -2 36 -7 103 -13 150 -5
47 -14 148 -20 225 -5 77 -12 149 -14 160 -7 32 -75 313 -97 400 -11 44 -29
113 -39 153 -10 41 -23 79 -28 85 -5 7 -12 30 -16 52 -6 37 -28 110 -46 160
-15 38 -32 110 -37 149 -2 22 -8 47 -13 57 -12 21 -43 109 -45 129 -1 8 -5 22
-8 30 -12 30 -37 124 -37 138 0 10 8 13 25 10 14 -3 25 -1 25 3 0 5 -13 9 -30
9 -26 0 -30 3 -30 29 0 16 6 32 12 34 10 4 10 6 1 6 -18 1 -16 21 2 21 9 0 15
9 15 21 0 18 -2 19 -15 9 -13 -10 -15 -9 -15 9 0 14 6 21 20 21 18 0 20 4 14
40 -7 42 9 58 19 20 4 -17 10 -20 34 -14 36 8 53 25 34 32 -29 10 -60 54 -71
103 -7 27 -16 52 -21 55 -12 7 -11 84 1 84 17 0 11 26 -10 45 -11 10 -20 30
-20 44 0 21 -2 23 -11 11 -8 -11 -9 -7 -5 19 3 18 6 51 6 73 0 24 4 37 10 33
6 -3 10 -1 10 4 0 6 11 11 25 11 23 0 25 4 25 40 0 30 4 40 16 40 9 0 25 9 34
20 16 19 23 20 91 10 41 -6 97 -8 125 -4 57 7 98 -2 88 -18 -4 -6 -2 -8 4 -4
6 3 13 2 16 -3 4 -5 14 -8 24 -6 9 2 23 4 30 4 15 1 17 81 2 81 -5 0 -11 15
-11 33 -1 17 -3 24 -6 15 -5 -21 -14 -23 -31 -6 -17 17 -15 28 6 28 14 0 15 2
2 10 -8 5 -12 10 -8 10 4 0 -4 12 -17 26 -14 15 -25 31 -25 35 0 5 -9 9 -20 9
-22 0 -27 24 -8 36 7 5 8 3 3 -6 -6 -9 -4 -11 4 -5 10 6 10 10 -1 21 -17 18
-58 26 -58 13 0 -6 -4 -7 -10 -4 -17 11 -11 28 9 22 16 -4 18 1 15 36 -2 23
-8 45 -14 51 -7 7 -10 7 -10 0 0 -6 -13 -9 -29 -6 -27 4 -28 5 -16 38 16 48
24 52 31 16 7 -36 24 -43 24 -10 0 36 43 117 63 118 9 0 17 5 17 11 0 7 12 22
26 35 14 13 23 28 20 33 -9 14 18 31 50 29 28 0 53 4 94 17 10 3 20 15 23 27
4 13 11 19 20 15 9 -3 30 11 53 34 21 21 42 39 47 39 6 0 20 11 33 26 l24 25
0 535 0 534 -741 0 c-491 0 -738 -3 -734 -10 3 -5 -3 -10 -14 -10 -12 0 -21 5
-21 10 0 6 -124 10 -351 10 -296 0 -350 -2 -346 -14 9 -24 -35 -52 -103 -65
-36 -7 -69 -16 -75 -19 -26 -16 -136 -49 -140 -42 -3 4 2 11 11 14 14 5 12 10
-11 28 -15 11 -23 24 -18 27 12 8 43 54 43 63 0 5 -340 8 -755 8 -664 0 -755
-2 -755 -15 0 -8 5 -15 11 -15 21 0 -3 -20 -34 -28 -25 -7 -31 -13 -29 -29 4
-26 -16 -40 -24 -19 -3 9 -10 14 -15 11 -9 -6 -29 26 -29 48 0 7 15 21 33 30
31 15 28 16 -110 16 -78 1 -153 -3 -168 -9 -17 -7 -24 -7 -20 0 4 7 -466 10
-1395 10 l-1402 0 3 -87z m3370 36 c41 -10 92 -56 85 -75 -3 -7 2 -18 10 -24
8 -7 14 -19 14 -26 0 -20 -26 -6 -38 19 -9 21 -10 20 -19 -12 l-9 -33 -24 48
c-21 40 -30 49 -52 49 -14 0 -29 3 -33 7 -4 3 -17 4 -31 2 -18 -3 -27 2 -39
25 -11 23 -12 31 -2 35 14 6 87 -2 138 -15z m1839 -24 c5 -28 9 -31 70 -40 53
-8 65 -14 68 -30 2 -11 9 -26 14 -32 8 -10 6 -13 -6 -13 -9 0 -16 -3 -16 -7 0
-13 52 -33 116 -44 50 -9 68 -17 95 -46 29 -31 31 -34 12 -28 -13 3 -23 2 -23
-3 0 -5 -10 -10 -22 -10 -13 0 -54 -8 -93 -17 -161 -37 -190 -43 -195 -39 -2
3 6 7 18 11 21 5 21 6 5 19 -10 7 -13 14 -8 14 6 0 3 5 -5 10 -8 5 -41 10 -72
10 -45 0 -60 4 -70 19 -8 11 -26 23 -40 26 -24 6 -25 9 -15 26 6 10 19 19 29
19 23 0 34 20 11 20 -13 1 -11 5 10 16 15 8 27 23 27 32 0 10 5 23 11 29 9 9
8 16 -5 28 -33 34 -10 68 44 63 30 -3 36 -7 40 -33z m-2290 -45 c0 -23 -23
-26 -67 -9 -22 8 -30 7 -39 -5 -6 -9 -17 -16 -24 -16 -10 0 -10 3 0 15 11 13
7 15 -26 16 -66 2 0 15 84 18 66 1 72 0 72 -19z m963 -43 c65 -34 320 -278
333 -319 3 -10 9 -18 14 -18 4 0 10 -6 13 -14 4 -10 0 -12 -14 -9 -13 4 -19 0
-19 -10 0 -18 16 -31 23 -20 4 9 -1 -12 -10 -37 -3 -8 1 -7 9 4 14 18 15 17
12 -22 -2 -29 1 -42 11 -42 7 0 15 -9 18 -21 3 -11 14 -23 24 -25 24 -7 73
-105 66 -133 -4 -15 -1 -21 11 -21 9 0 16 -4 16 -10 0 -18 -29 -11 -50 13 -12
12 -35 49 -52 82 -61 119 -75 146 -90 163 -8 9 -36 49 -62 87 -64 94 -114 154
-214 255 -46 46 -78 86 -72 88 9 3 9 7 -1 13 -22 14 6 10 34 -4z m-236 -34
c21 -21 55 -59 75 -84 40 -48 118 -184 118 -203 0 -6 -5 -3 -11 7 -13 23 -24
22 -36 -5 -9 -21 -11 -20 -40 23 -17 24 -40 64 -53 88 -12 24 -40 71 -62 103
-37 54 -56 108 -37 108 4 0 25 -17 46 -37z m2018 -226 c70 2 71 1 84 -28 7
-17 11 -43 7 -59 -5 -30 18 -65 60 -88 8 -5 26 -37 38 -73 20 -53 30 -67 62
-85 36 -20 39 -25 42 -73 2 -40 8 -54 28 -70 13 -10 29 -33 35 -50 13 -36 23
-39 42 -11 14 20 16 18 45 -40 47 -91 43 -173 -7 -177 -15 -1 -23 6 -27 25 -4
15 -11 33 -17 40 -8 10 -7 16 2 21 10 6 9 10 -4 15 -29 11 -46 7 -43 -11 2
-12 -2 -17 -12 -15 -8 2 -20 -5 -28 -15 -11 -16 -14 -16 -23 -3 -5 8 -7 31 -4
50 18 117 18 110 -9 110 -13 0 -26 6 -29 13 -3 9 -12 8 -37 -6 -38 -21 -50
-15 -50 23 0 16 -5 32 -10 35 -7 4 -7 12 0 25 5 10 10 35 10 54 0 30 -4 37
-26 42 -21 5 -25 11 -21 30 5 27 -9 30 -37 9 -23 -17 -46 -20 -46 -5 0 24 -45
70 -67 70 -19 0 -23 5 -23 29 0 17 5 33 10 36 14 9 12 42 -2 49 -9 4 -10 8 -2
11 6 3 20 12 30 20 18 14 18 14 -7 15 -15 0 -32 6 -38 14 -12 14 -83 28 -75
14 6 -10 -40 -11 -49 -1 -4 3 1 12 11 20 16 14 16 14 0 9 -25 -8 -22 1 5 15
32 18 80 28 97 20 8 -3 47 -5 85 -4z m-4025 -437 c0 -5 -5 -10 -11 -10 -5 0
-7 5 -4 10 3 6 8 10 11 10 2 0 4 -4 4 -10z m2740 -48 c0 -15 -2 -15 -10 -2
-13 20 -13 33 0 25 6 -3 10 -14 10 -23z m18 -47 c-3 -3 -9 2 -12 12 -6 14 -5
15 5 6 7 -7 10 -15 7 -18z m49 -103 c12 -24 19 -29 25 -20 5 8 6 -3 3 -27 -5
-30 -4 -36 4 -25 9 12 11 10 11 -10 0 -14 9 -49 20 -78 11 -29 20 -65 20 -80
0 -15 -16 19 -36 78 -19 58 -43 123 -54 146 -10 22 -21 58 -24 80 l-6 39 11
-35 c6 -19 18 -50 26 -68z m93 -77 c1 -5 7 -36 14 -67 8 -32 10 -58 5 -58 -5
0 -9 12 -10 28 -1 42 -24 107 -37 105 -7 -2 -12 4 -12 12 0 13 3 13 20 3 11
-7 20 -17 20 -23z m1760 -229 c0 -3 -4 -8 -10 -11 -5 -3 -10 -1 -10 4 0 6 5
11 10 11 6 0 10 -2 10 -4z m20 -60 c0 -3 -4 -8 -10 -11 -5 -3 -10 -1 -10 4 0
6 5 11 10 11 6 0 10 -2 10 -4z m-5847 -75 c4 -1 7 -5 7 -11 0 -5 -18 -10 -40
-10 -36 0 -49 8 -35 22 4 4 32 4 68 -1z m5758 -95 c5 3 9 -3 9 -13 0 -10 7
-27 15 -37 8 -11 15 -28 15 -38 0 -10 7 -18 15 -18 11 0 14 7 10 23 -3 12 1
31 9 42 25 34 41 5 39 -70 -1 -36 -5 -70 -8 -75 -4 -7 -24 -8 -51 -4 -33 5
-44 3 -46 -7 -1 -8 -4 27 -8 76 -4 50 -11 101 -14 115 -3 14 -4 19 0 12 3 -6
10 -10 15 -6z m-5358 -83 c-7 -2 -19 -2 -25 0 -7 3 -2 5 12 5 14 0 19 -2 13
-5z m5934 -55 c-3 -8 -6 -5 -6 6 -1 11 2 17 5 13 3 -3 4 -12 1 -19z m-402
-266 c-3 -4 -10 0 -15 8 -6 9 -5 19 0 24 6 6 11 19 12 31 1 11 3 3 5 -19 3
-21 2 -41 -2 -44z m-65 -47 c0 -9 -6 -12 -15 -9 -8 4 -12 10 -9 15 8 14 24 10
24 -6z m47 -137 c-3 -8 -6 -5 -6 6 -1 11 2 17 5 13 3 -3 4 -12 1 -19z m-3112
-163 c8 -27 29 -97 46 -155 38 -132 73 -216 87 -213 15 3 6 -38 -10 -49 -7 -4
-26 -8 -43 -8 -16 0 -73 -9 -125 -21 -52 -11 -128 -27 -168 -36 -76 -16 -93
-13 -73 10 14 18 70 191 106 330 26 99 29 104 53 103 19 -1 27 5 32 24 4 14
13 45 20 70 21 78 21 78 41 35 10 -22 25 -62 34 -90z m3092 93 c-3 -7 -5 -2
-5 12 0 14 2 19 5 13 2 -7 2 -19 0 -25z m21 -36 c2 -6 -6 -10 -16 -9 -12 1
-18 6 -15 14 6 16 25 13 31 -5z m-3241 -64 c-3 -7 -5 -2 -5 12 0 14 2 19 5 13
2 -7 2 -19 0 -25z m3228 -58 c3 -5 1 -10 -4 -10 -6 0 -11 5 -11 10 0 6 2 10 4
10 3 0 8 -4 11 -10z m15 -41 c0 -6 -4 -7 -10 -4 -5 3 -10 11 -10 16 0 6 5 7
10 4 6 -3 10 -11 10 -16z m-2954 -63 c8 -17 41 -73 74 -124 33 -51 60 -97 60
-101 0 -11 -111 -24 -121 -14 -4 4 -15 60 -24 123 -8 63 -17 125 -19 137 -4
30 13 18 30 -21z m2954 22 c0 -19 -2 -20 -10 -8 -13 19 -13 30 0 30 6 0 10
-10 10 -22z m-5253 -40 c-3 -7 -5 -2 -5 12 0 14 2 19 5 13 2 -7 2 -19 0 -25z
m-17 12 c0 -5 -5 -10 -11 -10 -5 0 -7 5 -4 10 3 6 8 10 11 10 2 0 4 -4 4 -10z
m960 -155 c11 -88 23 -174 26 -192 6 -32 5 -33 -25 -33 -22 0 -31 5 -32 18 -1
9 -3 37 -6 62 -4 47 6 314 13 308 2 -3 13 -76 24 -163z m1695 39 c33 -76 34
-79 15 -88 -34 -16 -46 -1 -58 72 -23 140 -13 144 43 16z m-1845 -261 c0 -2
-22 -3 -48 -3 l-49 0 -1 41 c-1 23 3 59 10 81 l11 39 39 -78 c21 -43 38 -79
38 -80z m1912 107 c4 -30 0 -34 -34 -36 -38 -3 -75 21 -47 30 8 2 21 7 29 9
26 9 50 7 52 -3z m1498 -215 c0 -107 -3 -195 -7 -195 -5 0 -7 15 -6 32 1 18 2
106 2 196 1 89 3 162 6 162 3 0 5 -88 5 -195z m-4120 171 c0 -3 -4 -8 -10 -11
-5 -3 -10 -1 -10 4 0 6 5 11 10 11 6 0 10 -2 10 -4z m547 -38 c-3 -8 -6 -5 -6
6 -1 11 2 17 5 13 3 -3 4 -12 1 -19z m-480 -15 c0 -9 -4 -10 -14 -2 -7 6 -13
12 -13 14 0 1 6 2 13 2 8 0 14 -6 14 -14z m500 -9 c-3 -3 -12 -4 -19 -1 -8 3
-5 6 6 6 11 1 17 -2 13 -5z m3786 -18 c4 -11 16 -13 41 -9 19 3 57 0 86 -7 45
-11 55 -18 89 -69 21 -31 51 -96 67 -146 24 -78 29 -109 32 -235 2 -87 -1
-160 -8 -182 -15 -53 -87 -173 -113 -191 -31 -21 -294 -281 -356 -351 -28 -33
-70 -92 -94 -133 -41 -72 -67 -93 -101 -80 -11 4 -12 14 -5 44 39 167 85 420
113 623 10 69 22 154 28 190 6 36 13 103 15 150 3 47 9 89 14 95 6 6 9 6 10 0
9 -131 11 -412 3 -466 -4 -28 -2 -38 12 -43 9 -4 19 -4 23 -1 8 9 30 305 30
426 1 128 6 134 83 124 38 -6 59 -14 74 -32 14 -17 24 -21 28 -14 12 18 -3 51
-20 44 -8 -3 -21 0 -29 7 -8 7 -44 15 -80 18 l-65 5 0 53 c0 29 -3 59 -6 67
-3 9 8 29 27 48 21 22 28 34 19 37 -7 3 -16 -1 -20 -8 -9 -15 -33 -3 -27 13 2
6 26 16 53 23 67 16 71 16 77 0z m-4486 -68 c-3 -7 -5 -2 -5 12 0 14 2 19 5
13 2 -7 2 -19 0 -25z m5397 -96 c15 -64 34 -130 41 -147 13 -29 45 -135 67
-220 19 -71 49 -179 58 -205 5 -14 16 -62 26 -107 9 -46 20 -83 24 -83 4 0 11
-28 14 -61 4 -34 16 -85 26 -113 10 -28 22 -91 26 -141 4 -49 9 -99 10 -110 2
-11 8 -78 13 -150 6 -71 13 -144 16 -160 4 -27 -4 -204 -21 -460 -11 -164 -23
-124 -17 58 3 99 2 177 -3 177 -5 0 -9 -38 -9 -85 0 -47 -3 -93 -7 -103 -3 -9
-7 82 -7 204 -1 149 -7 279 -21 400 -22 203 -25 221 -75 429 -19 83 -43 184
-52 225 -22 103 -31 137 -33 125 -3 -18 -117 444 -141 573 -10 52 -10 66 1 72
26 16 35 -2 64 -118z m-1197 81 c-3 -10 -5 -4 -5 12 0 17 2 24 5 18 2 -7 2
-21 0 -30z m-3505 9 c-10 -3 -10 -7 -1 -19 10 -12 10 -16 -1 -23 -24 -15 -2
-24 26 -11 22 10 28 8 44 -11 l19 -23 1 31 c0 29 3 32 38 37 49 6 72 -7 72
-41 1 -25 2 -26 14 -9 9 12 16 14 21 7 9 -15 25 -2 18 15 -7 21 25 19 80 -4
30 -13 47 -28 54 -47 53 -141 56 -154 51 -230 -3 -46 -10 -79 -18 -84 -7 -4
-49 -16 -94 -25 -63 -14 -104 -16 -185 -11 -57 3 -106 8 -108 10 -2 2 -11 41
-19 87 -27 145 -47 234 -57 246 -8 11 -2 97 9 115 2 3 14 4 26 0 13 -3 17 -7
10 -10z m3535 -29 c-3 -10 -5 -4 -5 12 0 17 2 24 5 18 2 -7 2 -21 0 -30z
m-3492 17 c3 -5 -1 -10 -9 -10 -9 0 -16 5 -16 10 0 6 4 10 9 10 6 0 13 -4 16
-10z m322 -26 c-3 -4 -14 -3 -24 0 -15 6 -15 8 -3 16 16 10 39 -4 27 -16z
m258 -64 c-8 -36 -22 -110 -31 -165 -18 -105 -36 -151 -48 -120 -11 29 -7 53
28 163 19 59 40 127 46 151 17 65 20 45 5 -29z m2882 -2 c-3 -8 -6 -5 -6 6 -1
11 2 17 5 13 3 -3 4 -12 1 -19z m111 -43 c-4 -50 -28 -60 -28 -12 0 20 3 43 6
52 11 28 26 1 22 -40z m-126 -67 c-8 -8 -9 -4 -5 13 4 13 8 18 11 10 2 -7 -1
-18 -6 -23z m52 -126 c-5 -12 -9 -6 -14 23 -5 26 -4 42 4 47 13 9 21 -45 10
-70z m-37 26 c-3 -8 -6 -5 -6 6 -1 11 2 17 5 13 3 -3 4 -12 1 -19z m-30 -120
c-2 -13 -4 -3 -4 22 0 25 2 35 4 23 2 -13 2 -33 0 -45z m-5 -144 c-10 -18 -4
-64 9 -64 5 0 9 8 9 18 1 15 2 15 10 1 12 -20 2 -59 -15 -59 -26 0 -38 98 -19
152 8 23 9 23 12 -4 2 -15 -1 -35 -6 -44z m25 4 c-3 -7 -5 -2 -5 12 0 14 2 19
5 13 2 -7 2 -19 0 -25z m20 -25 c-3 -10 -5 -2 -5 17 0 19 2 27 5 18 2 -10 2
-26 0 -35z m-3697 -548 c0 -16 -6 -25 -15 -25 -9 0 -15 9 -15 25 0 16 6 25 15
25 9 0 15 -9 15 -25z m3620 -14 c0 -5 -7 -12 -16 -15 -14 -5 -15 -4 -4 9 14
17 20 19 20 6z m-4145 -11 c-27 -5 -66 -8 -85 -8 -32 1 -31 2 10 8 25 4 63 7
85 7 38 0 37 0 -10 -7z m623 -15 c-3 -3 -9 2 -12 12 -6 14 -5 15 5 6 7 -7 10
-15 7 -18z m-268 -41 c0 -2 -16 -4 -35 -4 -19 0 -35 4 -35 8 0 4 16 6 35 4 19
-2 35 -6 35 -8z m-63 -86 c-2 -13 -4 -3 -4 22 0 25 2 35 4 23 2 -13 2 -33 0
-45z m150 0 c-2 -13 -4 -3 -4 22 0 25 2 35 4 23 2 -13 2 -33 0 -45z m80 -15
c-3 -2 -18 -3 -34 -1 l-28 3 30 30 30 30 3 -28 c2 -16 1 -31 -1 -34z m3520
-20 c-3 -10 -5 -4 -5 12 0 17 2 24 5 18 2 -7 2 -21 0 -30z m-53 -260 c-8 -32
-24 -55 -24 -32 0 26 12 59 21 59 5 0 6 -12 3 -27z m16 -74 c0 -6 8 -9 19 -6
14 3 19 -1 19 -19 0 -16 -15 -36 -44 -59 -49 -41 -58 -63 -16 -41 38 19 112
31 112 17 0 -6 -22 -26 -50 -43 -27 -18 -50 -36 -50 -40 0 -13 25 -9 46 7 27
20 40 19 21 -3 -21 -23 -21 -32 -2 -32 24 0 18 -10 -30 -52 -62 -54 -58 -77 8
-44 46 25 33 -3 -49 -110 -42 -55 -81 -111 -86 -125 -7 -20 -26 -34 -69 -53
-32 -14 -59 -30 -59 -36 0 -15 12 -13 77 12 71 27 80 29 121 29 17 0 32 4 32
9 0 6 -4 10 -10 10 -22 0 -8 16 33 38 52 27 55 27 90 -3 21 -18 27 -33 25 -53
-3 -24 -7 -27 -34 -24 -24 3 -35 -2 -48 -23 -16 -25 -19 -25 -35 -11 -22 20
-91 22 -91 2 0 -16 -62 -27 -160 -29 -62 -2 -65 -3 -62 -25 2 -19 -2 -23 -20
-20 -19 2 -22 8 -20 31 2 16 11 45 22 65 52 102 151 345 214 527 24 68 38 93
56 102 31 16 40 16 40 2z m1657 -451 c-3 -7 -5 -2 -5 12 0 14 2 19 5 13 2 -7
2 -19 0 -25z m-1657 -48 c0 -5 -5 -10 -12 -10 -6 0 -20 -8 -31 -17 -20 -18
-17 -5 6 25 11 14 37 16 37 2z m1677 -22 c-3 -8 -6 -5 -6 6 -1 11 2 17 5 13 3
-3 4 -12 1 -19z m-4724 -55 c-7 -2 -19 -2 -25 0 -7 3 -2 5 12 5 14 0 19 -2 13
-5z m4533 -69 c1 -21 -2 -31 -6 -23 -5 8 -11 -6 -15 -35 -5 -32 -10 -44 -16
-35 -7 11 -9 10 -9 -3 0 -10 6 -18 14 -18 10 0 12 -7 8 -22 -5 -19 -6 -20 -11
-4 -5 13 -10 9 -20 -19 -13 -38 -7 -61 9 -35 12 19 13 5 1 -18 -5 -9 -13 -26
-17 -37 -6 -18 -8 -18 -11 -2 -3 9 -9 17 -14 17 -6 0 -8 -9 -4 -19 3 -11 2
-22 -4 -25 -14 -9 -22 23 -11 44 13 24 61 171 63 193 1 9 4 17 8 17 4 0 10 16
14 36 8 43 18 37 21 -12z m-1123 -126 c19 -10 22 -36 6 -71 -10 -22 -20 -25
-118 -36 -60 -7 -135 -9 -168 -6 -39 5 -63 3 -67 -3 -3 -6 -32 -14 -64 -18
-31 -3 -61 -10 -67 -14 -11 -9 -169 -40 -200 -40 -26 0 -12 10 27 20 249 63
458 129 523 164 50 27 82 28 128 4z m-4943 2 c0 -4 -14 -14 -31 -23 -28 -13
-34 -13 -62 1 -18 8 -33 16 -34 17 -2 1 17 1 42 0 25 -1 47 1 50 5 5 9 35 9
35 0z m3877 -36 c-3 -3 -12 -4 -19 -1 -8 3 -5 6 6 6 11 1 17 -2 13 -5z m-52
-13 c-6 -5 -32 -12 -60 -15 -58 -7 -49 0 16 13 24 5 46 9 49 10 2 1 0 -3 -5
-8z m-165 -55 c0 -8 -10 -14 -22 -13 -13 0 -57 -3 -98 -6 l-75 -6 70 19 c86
23 125 25 125 6z m-240 -44 c0 -14 -66 -39 -175 -67 -219 -57 -311 -73 -175
-30 62 19 339 103 348 104 1 1 2 -3 2 -7z m2539 -57 l0 -20 -9 20 c-5 11 -9
27 -9 35 -1 13 0 13 9 0 5 -8 9 -24 9 -35z m-3794 -45 c-3 -5 -11 -10 -16 -10
-6 0 -7 5 -4 10 3 6 11 10 16 10 6 0 7 -4 4 -10z m766 -46 c-35 -13 -91 -27
-125 -29 -58 -4 -56 -3 49 25 134 35 161 37 76 4z m-771 13 c0 -2 -26 -30 -57
-62 -32 -33 -57 -63 -55 -68 2 -5 -4 -7 -13 -4 -14 6 -19 -3 -16 -29 1 -7 -5
-14 -14 -18 -23 -8 -18 13 19 79 26 46 44 65 77 83 41 21 59 27 59 19z m290
-33 c29 -16 36 -23 20 -20 -14 3 -33 6 -42 6 -10 0 -22 9 -28 20 -14 26 -5 25
50 -6z m3504 1 c3 -8 1 -15 -4 -15 -6 0 -10 7 -10 15 0 8 2 15 4 15 2 0 6 -7
10 -15z m-846 -53 c7 -22 12 -48 12 -58 0 -11 18 -62 40 -114 22 -51 37 -96
35 -99 -3 -2 -21 10 -40 29 -28 27 -38 48 -51 106 -18 82 -32 99 -91 108 -36
5 -44 3 -53 -14 -6 -11 -16 -20 -21 -20 -6 0 -25 -12 -42 -26 -26 -22 -32 -23
-39 -10 -5 9 -14 16 -20 16 -6 0 -36 14 -66 32 l-56 32 54 14 c116 29 296 59
311 51 8 -4 21 -25 27 -47z m-583 -82 c12 0 18 -12 74 -156 33 -85 37 -109 21
-119 -6 -4 -5 -13 3 -26 10 -16 9 -21 -2 -28 -19 -12 -234 -83 -560 -186 -233
-73 -280 -85 -315 -79 l-41 7 79 25 c87 28 89 44 3 18 -257 -77 -345 -97 -333
-77 3 5 -6 17 -20 26 -18 12 -24 13 -19 4 3 -8 -1 -5 -9 5 -9 11 -16 38 -16
62 0 78 111 174 259 224 35 11 84 30 110 42 236 105 319 138 516 204 55 18
118 40 140 48 22 9 53 14 69 11 16 -3 34 -5 41 -5z m380 -50 c4 -6 -5 -10 -19
-10 -14 0 -26 5 -26 10 0 6 9 10 19 10 11 0 23 -4 26 -10z m35 -40 c0 -5 -9
-10 -19 -10 -11 0 -23 5 -26 10 -4 6 5 10 19 10 14 0 26 -4 26 -10z m1100 1
c0 -5 3 -18 6 -28 4 -13 3 -14 -3 -5 -11 14 -24 3 -36 -28 -4 -12 -6 -12 -6 2
-1 22 20 68 31 68 4 0 8 -4 8 -9z m-1075 -11 c3 -5 1 -10 -4 -10 -6 0 -11 5
-11 10 0 6 2 10 4 10 3 0 8 -4 11 -10z m742 -35 c-6 -19 -14 -35 -19 -35 -11
0 -10 2 8 38 20 42 25 40 11 -3z m443 31 c0 -3 -4 -8 -10 -11 -5 -3 -10 -1
-10 4 0 6 5 11 10 11 6 0 10 -2 10 -4z m-1223 -12 c-3 -3 -12 -4 -19 -1 -8 3
-5 6 6 6 11 1 17 -2 13 -5z m1188 -4 c-3 -5 -10 -10 -16 -10 -5 0 -9 5 -9 10
0 6 7 10 16 10 8 0 12 -4 9 -10z m-1122 -7 c-7 -2 -21 -2 -30 0 -10 3 -4 5 12
5 17 0 24 -2 18 -5z m-3043 -82 c0 -18 -44 -84 -48 -72 -5 15 26 81 38 81 6 0
10 -4 10 -9z m3759 -31 c0 -10 -3 -8 -9 5 -12 27 -12 43 0 25 5 -8 9 -22 9
-30z m-38 3 c13 -16 12 -17 -3 -4 -10 7 -18 15 -18 17 0 8 8 3 21 -13z m-43
-13 c-7 -11 -17 -20 -22 -20 -5 0 -1 9 9 20 10 11 20 20 22 20 2 0 -2 -9 -9
-20z m-2018 0 c13 -9 12 -12 -5 -26 -11 -8 -31 -17 -45 -21 -74 -17 -150 -85
-200 -178 -39 -76 -43 -79 -70 -65 -18 9 -20 17 -14 43 12 57 73 136 149 192
22 17 49 38 59 48 22 19 101 23 126 7z m1643 -40 c3 -11 1 -20 -4 -20 -5 0 -9
9 -9 20 0 11 2 20 4 20 2 0 6 -9 9 -20z m352 0 c3 -5 -2 -10 -12 -11 -11 0
-13 -2 -5 -6 7 -3 17 -16 22 -29 5 -13 15 -24 21 -24 8 0 8 4 -1 15 -10 12
-10 15 3 15 9 0 19 -10 23 -22 3 -13 13 -30 21 -40 13 -14 13 -17 -1 -25 -8
-4 -15 -12 -15 -18 -1 -14 -11 -75 -17 -102 -3 -15 -12 -23 -24 -23 -11 0 -19
6 -17 13 1 7 -7 11 -20 9 -28 -4 -93 24 -93 40 0 10 -3 10 -9 -1 -8 -12 -13
-12 -35 3 -31 20 -32 27 -7 50 16 15 23 16 43 6 18 -10 21 -10 11 0 -6 7 -9
20 -6 29 4 14 3 14 -6 1 -5 -8 -12 -12 -15 -9 -7 6 85 105 95 102 4 -2 11 6
14 17 7 22 20 26 30 10z m45 -10 c0 -5 -4 -10 -10 -10 -5 0 -10 5 -10 10 0 6
5 10 10 10 6 0 10 -4 10 -10z m315 0 c3 -5 1 -10 -4 -10 -6 0 -11 5 -11 10 0
6 2 10 4 10 3 0 8 -4 11 -10z m-4031 -27 c-4 -10 -10 -50 -14 -88 -3 -39 -12
-79 -18 -90 -10 -17 -12 -11 -10 35 1 30 -2 62 -5 70 -5 10 0 24 13 37 11 12
17 29 14 37 -4 11 0 16 11 16 13 0 15 -5 9 -17z m3317 -10 c13 -16 12 -17 -3
-4 -10 7 -18 15 -18 17 0 8 8 3 21 -13z m7 -66 c33 -31 28 -41 -20 -32 -24 4
-49 7 -55 8 -7 0 -13 4 -13 8 0 4 -17 7 -37 7 -61 0 -73 2 -73 11 0 16 66 30
120 25 36 -4 63 -13 78 -27z m-2861 -6 c3 -10 23 -27 44 -37 22 -10 45 -27 51
-38 27 -49 10 -171 -28 -207 -25 -24 -48 -17 -39 12 10 29 -13 166 -34 207
-13 26 -30 41 -55 50 -49 18 -45 32 10 32 37 0 47 -4 51 -19z m-2487 0 c0 -5
-9 -11 -21 -14 -16 -4 -18 -3 -8 9 13 16 29 19 29 5z m2375 -14 c60 -33 105
-127 105 -218 0 -65 -3 -85 -31 -229 -14 -70 -15 -76 -17 -102 -2 -13 -11 -18
-30 -18 -39 0 -53 16 -41 48 18 46 49 252 49 321 0 54 -6 78 -27 122 -24 47
-34 56 -72 68 -30 10 -39 16 -30 22 23 14 52 10 94 -14z m-175 -25 c0 -10 -41
-35 -47 -28 -9 8 17 36 33 36 8 0 14 -3 14 -8z m3582 -4 c-18 -18 -14 -32 5
-17 15 13 15 12 5 -8 -15 -27 -34 -41 -25 -17 5 13 3 15 -7 9 -7 -5 -11 -4 -8
1 3 5 8 17 11 27 4 9 12 17 19 17 9 0 9 -3 0 -12z m-3912 -2 c0 -3 -4 -8 -10
-11 -5 -3 -10 -1 -10 4 0 6 5 11 10 11 6 0 10 -2 10 -4z m3143 -3 c-7 -2 -21
-2 -30 0 -10 3 -4 5 12 5 17 0 24 -2 18 -5z m272 -8 c50 -8 106 -15 125 -15
l35 -1 -34 -14 c-48 -21 -101 -18 -231 14 l-115 29 65 1 c36 0 106 -6 155 -14z
m-348 -1 c-3 -3 -12 -4 -19 -1 -8 3 -5 6 6 6 11 1 17 -2 13 -5z m303 -145
c-22 -6 -22 -7 -5 -10 11 -1 26 -2 34 -2 9 1 10 -2 3 -9 -6 -6 -28 -9 -50 -6
-22 2 -38 0 -36 -3 8 -13 -26 -18 -56 -8 -40 14 -38 27 5 35 19 3 37 9 39 13
3 4 24 5 48 2 37 -4 40 -5 18 -12z m-3357 -4 c-3 -9 -8 -14 -10 -11 -3 3 -2 9
2 15 9 16 15 13 8 -4z m3597 11 c0 -2 -7 -7 -16 -10 -8 -3 -12 -2 -9 4 6 10
25 14 25 6z m-135 -16 c-3 -5 -12 -10 -18 -10 -7 0 -6 4 3 10 19 12 23 12 15
0z m42 4 c-3 -3 -12 -4 -19 -1 -8 3 -5 6 6 6 11 1 17 -2 13 -5z m-1337 -46
c47 -20 104 -39 128 -43 48 -8 60 -24 44 -61 -13 -28 -47 -32 -90 -11 -15 8
-52 19 -83 26 -37 8 -63 20 -78 37 -17 19 -30 24 -54 22 -18 -2 -31 -7 -30
-13 1 -5 47 -25 101 -45 86 -30 107 -42 150 -86 27 -27 53 -58 59 -68 5 -9 19
-18 31 -19 32 -2 27 -17 -5 -17 -45 0 -131 46 -171 91 -50 56 -105 76 -229 83
-50 4 -53 2 -53 -20 0 -30 -41 -68 -115 -106 -50 -26 -66 -29 -107 -25 -40 5
-50 3 -55 -11 -4 -9 -16 -30 -29 -47 -12 -16 -32 -61 -44 -100 -23 -70 -44
-104 -56 -92 -4 3 -1 26 6 49 7 24 14 61 17 83 3 22 10 45 15 52 5 7 7 21 3
33 -4 12 -1 27 5 35 11 13 7 15 -24 15 -25 0 -36 -4 -36 -15 0 -8 -4 -15 -10
-15 -52 0 108 166 200 207 28 13 50 21 50 19 0 -2 -28 -22 -63 -45 -34 -22
-77 -56 -95 -74 -29 -30 -31 -35 -16 -41 18 -7 69 0 124 16 84 25 240 139 240
175 0 19 -52 16 -117 -7 -31 -11 -58 -18 -60 -16 -2 1 30 19 69 39 73 37 73
37 183 34 99 -3 118 -7 195 -39z m-1766 10 c19 -26 20 -63 5 -107 -16 -45 -28
-38 -18 12 9 46 -5 107 -24 107 -16 -1 -52 -32 -60 -50 -4 -11 -6 -11 -6 3 -1
10 4 27 9 38 15 28 74 26 94 -3z m1056 12 c0 -5 -4 -10 -10 -10 -5 0 -10 5
-10 10 0 6 5 10 10 10 6 0 10 -4 10 -10z m1249 6 c-5 -5 -160 -33 -229 -41
-25 -3 -61 -7 -80 -10 l-35 -5 35 16 c48 22 327 58 309 40z m466 -3 c-11 -3
-23 -10 -26 -16 -4 -5 -30 -12 -58 -15 -28 -2 -54 -9 -57 -13 -3 -5 -15 -9
-27 -9 -12 0 -69 -16 -127 -35 -58 -20 -159 -45 -224 -56 -118 -20 -120 -20
-139 -1 -22 22 -17 37 13 45 11 3 18 1 15 -3 -3 -5 0 -10 6 -12 15 -5 143 17
159 27 16 10 211 44 253 45 15 0 27 5 27 10 0 6 17 10 38 11 20 0 57 6 82 13
25 8 54 13 65 14 l20 0 -20 -5z m-3730 -52 c39 -6 163 -25 278 -42 114 -18
207 -36 207 -40 0 -4 -6 -14 -12 -21 -7 -8 -25 -37 -40 -66 -22 -41 -28 -65
-28 -117 l0 -64 -46 -27 c-26 -15 -97 -44 -158 -64 -61 -20 -140 -51 -176 -69
-74 -37 -92 -37 -245 -1 -50 11 -101 23 -114 26 -18 4 -21 8 -12 17 21 21 11
27 -39 27 -27 0 -50 2 -50 5 0 20 30 59 61 80 46 30 51 55 11 55 -16 0 -42 12
-62 29 l-34 28 29 16 c17 9 26 16 20 17 -5 0 13 12 40 26 81 41 155 88 155 97
0 5 -5 5 -12 0 -7 -6 -38 -24 -68 -40 -30 -17 -85 -47 -122 -67 -36 -20 -69
-33 -72 -27 -6 9 79 73 195 146 9 5 45 29 80 53 70 47 65 46 214 23z m-281
-13 c-5 -8 -1 -9 12 -4 14 5 16 4 7 -5 -13 -13 -37 -3 -28 12 4 5 8 9 11 9 3
0 2 -5 -2 -12z m1631 -8 c37 -14 65 -67 65 -122 0 -42 -5 -52 -47 -96 -49 -51
-103 -76 -103 -48 0 8 5 18 10 21 15 9 36 63 44 113 9 59 -10 132 -36 132 -11
0 -16 4 -12 11 6 11 31 7 79 -11z m-771 -34 c-8 -22 -34 -20 -34 2 0 27 22 46
32 28 4 -8 5 -21 2 -30z m-1609 24 c3 -5 -1 -10 -9 -10 -9 0 -16 5 -16 10 0 6
4 10 9 10 6 0 13 -4 16 -10z m715 -16 c0 -9 -30 -36 -30 -27 0 4 -7 0 -15 -10
-10 -14 -18 -16 -31 -9 -14 8 -11 11 20 22 20 6 36 16 36 21 0 5 5 9 10 9 6 0
10 -3 10 -6z m-110 -23 c0 -5 -7 -11 -14 -14 -10 -4 -13 -1 -9 9 6 15 23 19
23 5z m-550 -41 c0 -16 4 -30 10 -30 5 0 6 -8 3 -17 -5 -13 -9 -9 -19 18 -16
43 -17 59 -4 59 6 0 10 -13 10 -30z m569 7 c8 -11 5 -16 -13 -25 -19 -8 -25
-8 -30 3 -3 10 0 12 11 8 12 -5 15 -2 10 10 -8 20 6 22 22 4z m1671 -40 c0 -7
-7 -22 -15 -33 -14 -18 -14 -18 -15 7 0 14 3 29 7 32 11 11 23 8 23 -6z m2626
-16 c23 -6 47 -18 54 -26 7 -8 27 -17 46 -21 19 -3 34 -10 34 -15 0 -16 54
-36 114 -44 72 -8 126 -27 166 -56 27 -20 28 -24 15 -39 -8 -9 -15 -24 -15
-34 0 -20 -38 -36 -86 -36 -19 0 -34 -4 -34 -9 0 -11 -72 -2 -80 9 -3 4 -34
10 -70 14 -35 4 -79 14 -98 22 -19 7 -48 13 -66 12 -17 -1 -65 6 -106 15 -41
10 -83 17 -93 17 -10 0 -25 7 -34 16 -19 19 -140 15 -244 -8 -37 -8 -75 -13
-85 -12 -10 2 -49 -4 -86 -11 -38 -8 -72 -14 -76 -13 -12 3 -143 -13 -217 -27
-67 -13 -236 -31 -262 -29 -7 1 -11 -2 -8 -6 3 -4 -5 -8 -18 -7 -19 0 -82 -7
-152 -18 -79 -12 -135 -17 -135 -12 0 6 139 50 242 77 26 7 71 28 100 46 29
19 57 34 63 34 6 0 24 13 40 30 25 26 54 33 40 9 -4 -5 -1 -9 4 -9 6 0 11 6
11 13 0 9 18 14 63 14 34 1 148 15 252 32 105 17 222 36 260 42 39 6 86 14
105 19 19 5 81 12 138 16 56 4 102 10 102 14 0 8 50 0 116 -19z m-1321 9 c3
-5 27 -10 53 -10 52 0 61 -5 79 -37 10 -18 9 -25 -11 -46 -12 -13 -34 -32 -47
-40 -28 -19 -381 -97 -431 -96 l-33 0 25 17 c13 9 31 25 39 35 9 9 20 17 26
17 6 0 21 9 33 21 12 11 35 25 50 32 42 19 143 89 149 104 6 15 59 18 68 3z
m-3085 -15 c-7 -9 -15 -13 -19 -10 -3 3 1 10 9 15 21 14 24 12 10 -5z m1477
-47 c-3 -8 -6 -5 -6 6 -1 11 2 17 5 13 3 -3 4 -12 1 -19z m-1528 8 c-6 -6
-118 -24 -187 -30 -30 -3 -60 -10 -69 -17 -8 -7 -22 -14 -32 -15 -14 -2 -14
-1 2 10 18 14 24 32 7 21 -5 -3 -10 -2 -10 3 0 5 12 9 28 9 38 1 154 12 158
15 5 5 108 8 103 4z m-310 -25 c9 -6 10 -11 2 -15 -6 -4 -11 -2 -11 3 0 6 -7
11 -15 11 -8 0 -15 -5 -15 -12 0 -6 -3 -9 -6 -5 -8 8 5 27 19 27 7 0 18 -4 26
-9z m3854 -8 c-7 -2 -21 -2 -30 0 -10 3 -4 5 12 5 17 0 24 -2 18 -5z m-3477
-18 c10 -8 14 -15 7 -15 -6 0 -15 4 -18 10 -3 5 -18 7 -33 5 -177 -28 -235
-46 -213 -68 17 -17 13 -34 -16 -63 l-27 -27 -22 28 c-12 15 -24 43 -26 62 -4
31 -2 34 31 42 20 5 68 14 106 20 149 24 186 25 211 6z m-38 -24 c7 -4 20 -20
28 -36 15 -29 8 -76 -21 -140 -7 -16 -16 -42 -20 -56 -4 -15 -19 -39 -35 -54
-34 -33 -43 -28 -116 59 l-52 60 27 41 c14 22 27 47 29 55 2 8 13 25 24 37 16
18 38 25 118 42 3 0 11 -3 18 -8z m2502 -21 c0 -21 -24 -100 -31 -100 -14 0
-15 51 -1 80 14 29 32 40 32 20z m-1150 -65 c-6 -8 -9 -19 -5 -25 4 -6 -4 -10
-20 -10 -28 0 -28 1 9 57 19 29 21 31 24 12 2 -11 -2 -26 -8 -34z m3550 5 c0
-11 -4 -20 -10 -20 -5 0 -10 9 -10 20 0 11 5 20 10 20 6 0 10 -9 10 -20z
m-3540 -70 c0 -5 -2 -10 -4 -10 -3 0 -8 5 -11 10 -3 6 -1 10 4 10 6 0 11 -4
11 -10z m1505 -60 c-28 -12 -37 -12 -30 0 3 6 16 10 28 9 21 0 21 -1 2 -9z
m-240 -10 c-3 -5 -12 -10 -18 -10 -7 0 -6 4 3 10 19 12 23 12 15 0z m-260 -28
c-11 -9 -87 -33 -101 -31 -5 0 9 9 31 20 40 19 87 26 70 11z m35 -42 c-8 -5
-24 -10 -35 -10 -17 0 -17 2 -5 10 8 5 24 10 35 10 17 0 17 -2 5 -10z"/>
<path d="M4290 6461 c0 -6 5 -13 10 -16 6 -3 10 1 10 9 0 9 -4 16 -10 16 -5 0
-10 -4 -10 -9z"/>
<path d="M4340 6379 c0 -5 5 -7 10 -4 6 3 10 8 10 11 0 2 -4 4 -10 4 -5 0 -10
-5 -10 -11z"/>
<path d="M3785 6750 c-3 -5 -1 -10 4 -10 6 0 11 5 11 10 0 6 -2 10 -4 10 -3 0
-8 -4 -11 -10z"/>
<path d="M3770 6720 c0 -5 5 -10 11 -10 5 0 7 5 4 10 -3 6 -8 10 -11 10 -2 0
-4 -4 -4 -10z"/>
<path d="M3151 4774 c0 -11 3 -14 6 -6 3 7 2 16 -1 19 -3 4 -6 -2 -5 -13z"/>
<path d="M5665 3899 c-8 -21 17 -121 30 -117 12 4 11 7 -8 78 -10 36 -17 50
-22 39z"/>
<path d="M5668 3626 c-12 -36 -12 -43 -1 -39 7 3 13 11 13 19 0 8 5 14 10 14
6 0 10 11 10 25 0 39 -16 29 -32 -19z"/>
<path d="M5410 3441 c0 -7 -4 -9 -10 -6 -6 4 -7 -1 -3 -11 6 -15 7 -15 15 1 6
9 7 19 4 22 -3 4 -6 1 -6 -6z"/>
<path d="M5391 3364 c0 -11 3 -14 6 -6 3 7 2 16 -1 19 -3 4 -6 -2 -5 -13z"/>
<path d="M6431 4214 c0 -11 3 -14 6 -6 3 7 2 16 -1 19 -3 4 -6 -2 -5 -13z"/>
<path d="M1870 4105 c0 -5 5 -17 10 -25 5 -8 10 -10 10 -5 0 6 -5 17 -10 25
-5 8 -10 11 -10 5z"/>
<path d="M1910 4008 c0 -9 5 -20 10 -23 13 -8 13 5 0 25 -8 13 -10 13 -10 -2z"/>
<path d="M4035 861 c-25 -14 -31 -25 -33 -59 -3 -37 0 -43 22 -54 35 -15 101
5 122 37 15 23 15 28 0 60 -14 30 -22 35 -49 34 -18 0 -45 -8 -62 -18z m98
-19 c20 -17 10 -49 -19 -69 -35 -22 -51 -12 -46 31 2 20 8 36 14 36 5 0 7 4 4
8 -8 13 30 7 47 -6z"/>
<path d="M6050 929 c0 -5 5 -7 10 -4 6 3 10 8 10 11 0 2 -4 4 -10 4 -5 0 -10
-5 -10 -11z"/>
<path d="M6015 900 c-3 -5 -2 -10 4 -10 5 0 13 5 16 10 3 6 2 10 -4 10 -5 0
-13 -4 -16 -10z"/>
<path d="M5930 831 c0 -9 30 -24 36 -18 2 1 -6 8 -16 15 -11 7 -20 8 -20 3z"/>
<path d="M4288 653 c7 -3 16 -2 19 1 4 3 -2 6 -13 5 -11 0 -14 -3 -6 -6z"/>
<path d="M698 5583 c7 -3 16 -2 19 1 4 3 -2 6 -13 5 -11 0 -14 -3 -6 -6z"/>
<path d="M700 5550 c0 -5 5 -10 10 -10 6 0 10 5 10 10 0 6 -4 10 -10 10 -5 0
-10 -4 -10 -10z"/>
<path d="M722 5450 c0 -14 2 -19 5 -12 2 6 2 18 0 25 -3 6 -5 1 -5 -13z"/>
<path d="M798 5230 c3 -31 8 -40 23 -40 15 0 19 7 19 40 0 35 -3 40 -23 40
-20 0 -22 -4 -19 -40z"/>
<path d="M660 5180 c0 -5 5 -10 10 -10 6 0 10 5 10 10 0 6 -4 10 -10 10 -5 0
-10 -4 -10 -10z"/>
<path d="M700 5150 c0 -22 4 -40 9 -40 5 0 11 18 13 40 2 28 0 40 -9 40 -8 0
-13 -14 -13 -40z"/>
<path d="M962 4975 c0 -16 2 -22 5 -12 2 9 2 23 0 30 -3 6 -5 -1 -5 -18z"/>
<path d="M6720 4800 c0 -5 5 -10 10 -10 6 0 10 5 10 10 0 6 -4 10 -10 10 -5 0
-10 -4 -10 -10z"/>
<path d="M6480 4780 c0 -5 7 -7 15 -4 8 4 15 8 15 10 0 2 -7 4 -15 4 -8 0 -15
-4 -15 -10z"/>
<path d="M6540 4760 c-13 -9 -13 -11 0 -20 15 -10 25 0 18 20 -2 6 -8 6 -18 0z"/>
<path d="M6460 4555 c-10 -12 -10 -15 4 -15 9 0 16 7 16 15 0 8 -2 15 -4 15
-2 0 -9 -7 -16 -15z"/>
<path d="M6430 4510 c0 -5 7 -10 15 -10 8 0 15 5 15 10 0 6 -7 10 -15 10 -8 0
-15 -4 -15 -10z"/>
<path d="M6450 4369 c0 -5 5 -7 10 -4 6 3 10 8 10 11 0 2 -4 4 -10 4 -5 0 -10
-5 -10 -11z"/>
<path d="M1075 3930 c3 -5 8 -10 11 -10 2 0 4 5 4 10 0 6 -5 10 -11 10 -5 0
-7 -4 -4 -10z"/>
<path d="M2487 3593 c-4 -3 -7 -15 -7 -26 0 -34 -89 -283 -135 -379 -25 -51
-44 -104 -44 -118 l2 -25 4 24 c3 13 14 40 25 60 75 133 128 270 152 396 14
71 15 80 3 68z"/>
<path d="M2300 3023 c0 -4 5 -15 10 -23 8 -13 10 -13 10 2 0 9 -4 20 -10 23
-5 3 -10 3 -10 -2z"/>
<path d="M960 2960 c0 -5 19 -10 43 -9 36 1 38 2 17 9 -36 12 -60 12 -60 0z"/>
<path d="M480 2841 c0 -4 -21 -14 -47 -20 -109 -28 -129 -33 -143 -42 -8 -5
-23 -12 -32 -15 -21 -7 -25 -68 -6 -80 8 -5 9 0 6 14 -8 28 18 35 92 23 l55
-9 -62 -1 c-70 -1 -79 -12 -40 -49 15 -14 36 -22 60 -22 26 0 37 -4 37 -15 0
-10 -10 -15 -34 -15 -19 0 -38 -4 -41 -10 -4 -6 10 -10 34 -10 23 0 41 -5 41
-10 0 -7 6 -7 18 -1 9 5 26 13 37 17 19 7 19 7 2 11 -12 3 -16 10 -13 20 3 8
6 30 6 49 0 30 3 34 25 34 22 0 25 4 25 39 0 22 -5 41 -12 44 -7 3 5 4 27 2
22 -1 33 -1 23 2 -9 2 -19 15 -22 29 -6 22 -36 35 -36 15z"/>
<path d="M1688 2793 c6 -2 12 -12 12 -21 0 -12 3 -13 11 -5 14 14 3 33 -19 32
-11 0 -12 -3 -4 -6z"/>
<path d="M1682 2735 c0 -16 2 -22 5 -12 2 9 2 23 0 30 -3 6 -5 -1 -5 -18z"/>
<path d="M60 2740 c0 -5 5 -10 10 -10 6 0 10 5 10 10 0 6 -4 10 -10 10 -5 0
-10 -4 -10 -10z"/>
<path d="M960 2725 c0 -10 10 -15 33 -15 30 1 31 1 13 15 -25 19 -46 19 -46 0z"/>
<path d="M43 2700 c2 -8 12 -16 23 -17 13 -2 15 -1 4 4 -8 3 -19 11 -23 17 -6
7 -7 6 -4 -4z"/>
<path d="M1120 2695 c0 -11 -11 -15 -40 -15 -22 0 -40 5 -40 10 0 6 -47 10
-120 10 -79 0 -120 -4 -120 -11 0 -6 -18 -9 -44 -8 -26 2 -51 -3 -60 -10 -22
-18 -20 -64 3 -85 19 -17 20 -17 24 16 3 30 4 29 5 -9 1 -27 7 -43 15 -43 7 0
4 -7 -7 -15 -24 -18 -21 -21 27 -30 32 -6 37 -5 37 11 0 17 7 19 75 16 46 -2
75 0 75 7 0 5 -17 12 -37 14 -21 2 16 4 83 5 112 2 122 4 142 25 12 13 22 29
22 35 0 7 9 12 20 12 27 0 26 5 -15 45 -38 39 -45 42 -45 20z"/>
<path d="M10 2675 c7 -8 16 -15 21 -15 19 0 109 -62 109 -75 0 -8 4 -16 9 -20
6 -3 9 5 8 17 -1 24 -19 48 -35 48 -6 0 -12 7 -16 15 -3 8 -16 15 -28 15 -13
0 -32 7 -42 15 -26 19 -42 19 -26 0z"/>
<path d="M120 2670 c0 -5 5 -10 10 -10 6 0 10 5 10 10 0 6 -4 10 -10 10 -5 0
-10 -4 -10 -10z"/>
<path d="M480 2640 c0 -5 5 -10 10 -10 6 0 10 5 10 10 0 6 -4 10 -10 10 -5 0
-10 -4 -10 -10z"/>
<path d="M1761 2584 c0 -11 3 -14 6 -6 3 7 2 16 -1 19 -3 4 -6 -2 -5 -13z"/>
<path d="M157 2373 c3 -98 8 -180 10 -183 2 -2 8 2 13 10 5 8 6 17 2 20 -6 4
-11 83 -16 278 0 28 -4 52 -8 52 -4 0 -5 -80 -1 -177z"/>
<path d="M4090 2525 c-6 -8 -10 -20 -8 -26 2 -6 12 0 21 15 18 27 8 37 -13 11z"/>
<path d="M3369 2526 c-3 -3 -46 -10 -97 -17 l-93 -12 33 -19 c18 -11 43 -30
56 -41 l23 -21 49 49 c27 28 50 53 50 58 0 8 -14 10 -21 3z"/>
<path d="M4218 2493 c5 -21 7 -23 10 -9 2 10 0 22 -6 28 -6 6 -7 0 -4 -19z"/>
<path d="M1950 2485 c0 -8 4 -15 10 -15 5 0 7 7 4 15 -4 8 -8 15 -10 15 -2 0
-4 -7 -4 -15z"/>
<path d="M3426 2459 c-46 -50 -68 -101 -60 -134 7 -29 22 -33 30 -7 16 49 41
97 66 125 15 18 26 36 25 41 -7 22 -26 14 -61 -25z"/>
<path d="M2896 2469 c-41 -6 -101 -24 -150 -45 -89 -40 -158 -47 -301 -31 -66
8 -68 7 -38 -7 38 -17 53 -43 53 -88 0 -42 15 -58 54 -58 25 0 40 10 74 50 52
60 92 87 187 125 59 23 85 28 165 29 83 0 102 -3 153 -26 98 -46 114 -61 220
-203 51 -68 62 -75 114 -69 135 18 127 14 134 69 4 28 14 68 23 90 l17 39 -44
44 -45 44 -29 -43 c-33 -49 -63 -120 -63 -149 0 -10 -5 -22 -11 -26 -13 -8
-42 24 -104 112 -47 67 -105 124 -143 141 -31 14 -165 15 -266 2z"/>
<path d="M4089 2433 c7 -14 21 -23 34 -22 15 0 17 2 7 6 -8 3 -24 13 -34 22
-18 15 -18 15 -7 -6z"/>
<path d="M7010 2430 c0 -5 5 -10 11 -10 5 0 7 5 4 10 -3 6 -8 10 -11 10 -2 0
-4 -4 -4 -10z"/>
<path d="M2573 2413 c9 -2 23 -2 30 0 6 3 -1 5 -18 5 -16 0 -22 -2 -12 -5z"/>
<path d="M1590 2380 c8 -5 24 -10 34 -10 26 0 18 6 -19 14 -22 5 -26 4 -15 -4z"/>
<path d="M1800 2378 c0 -11 110 -9 135 2 13 6 -7 8 -57 7 -43 -1 -78 -5 -78
-9z"/>
<path d="M2288 2383 c6 -2 18 -2 25 0 6 3 1 5 -13 5 -14 0 -19 -2 -12 -5z"/>
<path d="M1670 2358 c-14 -4 -59 -12 -100 -17 l-75 -9 85 5 c47 3 103 8 125
12 34 6 36 8 15 12 -14 3 -36 1 -50 -3z"/>
<path d="M1758 2363 c6 -2 18 -2 25 0 6 3 1 5 -13 5 -14 0 -19 -2 -12 -5z"/>
<path d="M2813 2350 c-107 -35 -197 -124 -223 -221 -16 -60 -6 -79 41 -79 34
0 39 3 39 24 0 87 64 171 158 206 107 41 196 17 315 -84 35 -29 73 -58 84 -65
22 -11 53 -6 53 9 0 19 -175 171 -225 195 -74 37 -159 42 -242 15z"/>
<path d="M2330 2353 c-28 -5 -57 -28 -72 -56 -14 -28 15 -83 51 -95 32 -11 71
-6 71 10 0 6 -11 7 -26 4 -37 -10 -74 17 -74 52 0 36 33 72 66 72 30 0 67 -18
60 -28 -3 -5 -1 -14 5 -22 6 -11 9 -8 9 12 0 26 -32 60 -55 57 -5 -1 -21 -4
-35 -6z"/>
<path d="M1453 2323 c9 -2 23 -2 30 0 6 3 -1 5 -18 5 -16 0 -22 -2 -12 -5z"/>
<path d="M1260 2306 c0 -2 7 -7 16 -10 8 -3 12 -2 9 4 -6 10 -25 14 -25 6z"/>
<path d="M7003 2270 c0 -25 2 -35 4 -22 2 12 2 32 0 45 -2 12 -4 2 -4 -23z"/>
<path d="M3694 2282 c-5 -4 -16 -22 -23 -40 -11 -25 -11 -35 -1 -47 21 -26 35
-17 48 31 15 56 6 77 -24 56z"/>
<path d="M898 2253 c6 -2 18 -2 25 0 6 3 1 5 -13 5 -14 0 -19 -2 -12 -5z"/>
<path d="M3764 2235 c-16 -25 -12 -45 10 -45 11 0 20 12 44 63 10 20 -40 4
-54 -18z"/>
<path d="M4460 2251 c0 -6 5 -13 10 -16 6 -3 10 1 10 9 0 9 -4 16 -10 16 -5 0
-10 -4 -10 -9z"/>
<path d="M833 2243 c9 -2 25 -2 35 0 9 3 1 5 -18 5 -19 0 -27 -2 -17 -5z"/>
<path d="M768 2233 c6 -2 18 -2 25 0 6 3 1 5 -13 5 -14 0 -19 -2 -12 -5z"/>
<path d="M2837 2220 c-61 -23 -72 -33 -104 -87 -22 -39 -24 -46 -11 -59 11
-12 24 -12 68 -4 29 6 61 17 70 25 13 12 47 15 158 15 90 0 142 4 142 10 0 17
-119 89 -174 105 -64 19 -90 18 -149 -5z"/>
<path d="M220 2222 c0 -4 10 -9 22 -9 18 -2 20 0 8 7 -18 12 -30 13 -30 2z"/>
<path d="M663 2223 c9 -2 25 -2 35 0 9 3 1 5 -18 5 -19 0 -27 -2 -17 -5z"/>
<path d="M573 2213 c9 -2 23 -2 30 0 6 3 -1 5 -18 5 -16 0 -22 -2 -12 -5z"/>
<path d="M470 2200 c0 -5 5 -10 11 -10 5 0 7 5 4 10 -3 6 -8 10 -11 10 -2 0
-4 -4 -4 -10z"/>
<path d="M505 2200 c-8 -13 5 -13 25 0 13 8 13 10 -2 10 -9 0 -20 -4 -23 -10z"/>
<path d="M4374 2165 c-26 -24 -46 -47 -43 -49 5 -5 65 48 88 77 24 31 3 18
-45 -28z"/>
<path d="M398 2193 c7 -3 16 -2 19 1 4 3 -2 6 -13 5 -11 0 -14 -3 -6 -6z"/>
<path d="M237 2183 c-14 -13 -7 -23 16 -22 21 0 21 1 2 8 l-20 8 20 5 c13 4
15 6 4 7 -9 0 -19 -2 -22 -6z"/>
<path d="M297 2178 c-7 -4 1 -8 18 -8 17 0 37 5 45 10 11 7 6 9 -18 7 -19 -1
-39 -5 -45 -9z"/>
<path d="M655 2181 l-40 -7 40 -12 c69 -21 105 -13 105 24 0 5 -56 3 -105 -5z"/>
<path d="M6990 2132 c0 -28 5 -54 10 -57 8 -5 9 10 4 47 -9 70 -14 74 -14 10z"/>
<path d="M555 2151 c-11 -18 101 -61 158 -61 45 0 27 24 -24 31 -24 4 -61 14
-83 23 -45 19 -43 19 -51 7z"/>
<path d="M456 2111 c-13 -21 10 -43 81 -78 89 -44 198 -59 209 -29 9 24 1 29
-67 37 -40 5 -85 19 -130 43 -72 38 -84 42 -93 27z"/>
<path d="M2247 1824 c6 -15 23 -19 23 -5 0 5 -7 11 -14 14 -10 4 -13 1 -9 -9z"/>
<path d="M1735 1757 c-6 -23 -13 -56 -14 -69 -1 -3 -13 -10 -28 -15 -16 -6
-23 -12 -16 -16 21 -13 61 35 67 81 6 45 0 57 -9 19z"/>
<path d="M1594 1652 c5 -8 66 -4 66 4 0 2 -16 4 -36 4 -19 0 -33 -4 -30 -8z"/>
<path d="M1548 1643 c7 -3 16 -2 19 1 4 3 -2 6 -13 5 -11 0 -14 -3 -6 -6z"/>
<path d="M1478 1633 c7 -3 16 -2 19 1 4 3 -2 6 -13 5 -11 0 -14 -3 -6 -6z"/>
<path d="M2665 1630 c-3 -6 1 -7 9 -4 18 7 21 14 7 14 -6 0 -13 -4 -16 -10z"/>
<path d="M1355 1594 c-49 -20 -106 -42 -125 -49 -22 -9 -27 -14 -15 -14 11 0
29 4 40 8 11 5 25 4 33 -2 7 -5 15 -7 19 -3 3 3 1 6 -5 6 -32 0 -4 18 61 40
39 13 79 30 87 37 22 20 3 15 -95 -23z"/>
<path d="M2650 1585 c-6 -8 -10 -21 -8 -31 2 -11 7 -6 15 15 13 34 11 38 -7
16z"/>
<path d="M2980 1545 c0 -8 7 -15 15 -15 9 0 12 6 9 15 -4 8 -10 15 -15 15 -5
0 -9 -7 -9 -15z"/>
<path d="M1148 1523 c7 -3 16 -2 19 1 4 3 -2 6 -13 5 -11 0 -14 -3 -6 -6z"/>
<path d="M2940 1510 c0 -5 5 -10 10 -10 6 0 10 5 10 10 0 6 -4 10 -10 10 -5 0
-10 -4 -10 -10z"/>
<path d="M2998 1513 c7 -3 16 -2 19 1 4 3 -2 6 -13 5 -11 0 -14 -3 -6 -6z"/>
<path d="M2580 1500 c8 -5 20 -10 25 -10 6 0 3 5 -5 10 -8 5 -19 10 -25 10 -5
0 -3 -5 5 -10z"/>
<path d="M1060 1490 c0 -5 5 -10 10 -10 6 0 10 5 10 10 0 6 -4 10 -10 10 -5 0
-10 -4 -10 -10z"/>
<path d="M1013 1479 c-25 -9 -30 -19 -10 -19 15 0 43 17 37 23 -3 3 -15 1 -27
-4z"/>
<path d="M923 1445 c-17 -7 -50 -37 -72 -67 -23 -29 -49 -62 -59 -73 -11 -11
-28 -34 -40 -51 l-22 -32 35 1 c37 1 40 4 25 27 -5 8 -6 17 -2 20 4 3 25 31
46 62 43 64 88 108 110 108 8 0 18 5 21 10 8 13 -3 12 -42 -5z m-143 -205 c0
-5 -4 -10 -10 -10 -5 0 -10 5 -10 10 0 6 5 10 10 10 6 0 10 -4 10 -10z"/>
<path d="M6726 1417 c3 -8 11 -14 19 -14 20 0 19 4 -5 17 -15 8 -18 8 -14 -3z"/>
<path d="M6697 1322 c-10 -10 -17 -22 -17 -27 0 -4 9 2 20 15 11 13 20 25 20
27 0 7 -8 2 -23 -15z"/>
<path d="M6648 1289 c-3 -19 0 -25 15 -26 13 -1 16 2 9 10 -5 7 -11 19 -14 27
-3 10 -6 6 -10 -11z"/>
<path d="M2402 1280 c0 -14 2 -19 5 -12 2 6 2 18 0 25 -3 6 -5 1 -5 -13z"/>
<path d="M2389 1241 c8 -5 11 -17 7 -32 -6 -21 -5 -22 4 -6 13 21 6 47 -12 47
-10 0 -10 -2 1 -9z"/>
<path d="M6735 1240 c-3 -5 1 -10 9 -10 9 0 16 5 16 10 0 6 -4 10 -9 10 -6 0
-13 -4 -16 -10z"/>
<path d="M2330 1226 c0 -2 9 -6 20 -9 11 -3 20 -1 20 4 0 5 -9 9 -20 9 -11 0
-20 -2 -20 -4z"/>
<path d="M6715 1200 c4 -6 11 -8 16 -5 14 9 11 15 -7 15 -8 0 -12 -5 -9 -10z"/>
<path d="M2380 1159 c-7 -11 -9 -23 -6 -27 3 -3 6 -1 6 5 0 6 7 13 14 16 11 4
13 1 9 -11 -4 -13 -3 -14 6 -6 12 11 5 44 -10 44 -4 0 -13 -9 -19 -21z"/>
<path d="M687 1119 c7 -7 15 -10 18 -7 3 3 -2 9 -12 12 -14 6 -15 5 -6 -5z"/>
<path d="M6643 1105 c-3 -9 -3 -19 1 -22 3 -4 6 1 6 10 0 8 8 18 18 20 16 4
16 5 -1 6 -10 0 -20 -6 -24 -14z"/>
<path d="M2347 1066 c-4 -10 -5 -21 -2 -24 9 -9 17 6 13 25 -3 17 -4 17 -11
-1z"/>
<path d="M2320 1005 c0 -5 5 -17 10 -25 5 -8 10 -10 10 -5 0 6 -5 17 -10 25
-5 8 -10 11 -10 5z"/>
<path d="M6375 950 c-3 -5 -1 -10 4 -10 6 0 11 5 11 10 0 6 -2 10 -4 10 -3 0
-8 -4 -11 -10z"/>
<path d="M0 919 c0 -16 7 -19 53 -17 35 1 42 2 20 5 -18 2 -33 8 -33 12 0 5
-9 11 -20 14 -15 4 -20 0 -20 -14z"/>
<path d="M6440 930 c20 -13 40 -13 40 0 0 6 -12 10 -27 10 -22 0 -25 -2 -13
-10z"/>
<path d="M6360 920 c0 -14 15 -19 29 -11 9 6 7 10 -8 14 -12 3 -21 1 -21 -3z"/>
<path d="M6271 856 c2 -2 15 -9 29 -16 23 -12 24 -12 11 3 -7 10 -20 17 -29
17 -8 0 -13 -2 -11 -4z"/>
<path d="M471 824 c0 -11 3 -14 6 -6 3 7 2 16 -1 19 -3 4 -6 -2 -5 -13z"/>
<path d="M6226 805 c-4 -13 -2 -14 14 -5 23 13 26 20 6 20 -8 0 -16 -7 -20
-15z"/>
<path d="M6274 804 c-18 -14 -18 -14 6 -3 31 14 36 19 24 19 -6 0 -19 -7 -30
-16z"/>
<path d="M520 780 c0 -3 5 -11 12 -18 9 -9 9 -12 0 -12 -7 0 -12 -4 -12 -10 0
-21 18 -9 28 18 8 24 7 28 -9 28 -11 0 -19 -3 -19 -6z"/>
<path d="M1117 770 c4 -16 14 -20 43 -20 22 0 40 -5 43 -12 2 -7 8 -10 12 -6
14 13 -43 58 -74 58 -24 0 -28 -3 -24 -20z"/>
<path d="M1670 700 c-8 -5 -11 -12 -8 -16 4 -3 14 1 23 10 18 17 9 21 -15 6z"/>
<path d="M620 685 c7 -9 15 -13 17 -11 7 7 -7 26 -19 26 -6 0 -6 -6 2 -15z"/>
<path d="M1565 680 c28 -12 37 -12 30 0 -3 6 -16 10 -28 9 -21 0 -21 -1 -2 -9z"/>
<path d="M1745 660 c-3 -5 -1 -10 4 -10 6 0 11 5 11 10 0 6 -2 10 -4 10 -3 0
-8 -4 -11 -10z"/>
<path d="M40 630 c8 -5 22 -9 30 -9 10 0 8 3 -5 9 -27 12 -43 12 -25 0z"/>
<path d="M1964 629 c-5 -9 -2 -10 9 -6 9 3 30 2 48 -3 18 -5 28 -6 23 -1 -17
16 -72 23 -80 10z"/>
<path d="M700 626 c0 -2 8 -10 18 -17 15 -13 16 -12 3 4 -13 16 -21 21 -21 13z"/>
<path d="M138 603 c7 -3 16 -2 19 1 4 3 -2 6 -13 5 -11 0 -14 -3 -6 -6z"/>
<path d="M20 565 c7 -8 9 -15 4 -15 -16 0 42 -35 96 -58 97 -41 129 -51 135
-43 3 5 -15 15 -40 22 -29 9 -44 18 -41 26 4 9 -4 13 -20 13 -24 0 -63 15 -74
29 -7 10 -58 41 -66 41 -3 0 -1 -7 6 -15z"/>
<path d="M6640 512 c0 -4 19 -18 43 -29 43 -22 89 -57 139 -105 15 -14 42 -35
60 -46 18 -12 42 -29 53 -39 11 -10 40 -35 65 -55 25 -20 57 -47 72 -60 14
-13 36 -30 49 -38 12 -8 29 -23 38 -32 17 -20 31 -23 31 -7 0 10 -24 39 -33
39 -10 0 -67 58 -67 68 0 5 -10 12 -23 16 -27 6 -73 44 -70 57 2 4 -4 6 -12 3
-8 -4 -15 -2 -15 4 0 5 -31 33 -70 63 -67 51 -83 69 -59 69 5 0 8 4 5 9 -3 5
-16 7 -28 3 -16 -4 -20 -2 -15 10 4 12 1 14 -15 10 -13 -3 -19 -1 -15 5 8 13
-37 38 -52 29 -6 -4 -19 2 -31 14 -20 20 -50 27 -50 12z"/>
<path d="M1040 444 c0 -14 3 -14 15 -4 8 7 15 14 15 16 0 2 -7 4 -15 4 -8 0
-15 -7 -15 -16z"/>
<path d="M6765 390 c4 -6 11 -10 17 -10 6 0 17 -8 24 -17 12 -16 13 -16 14 -1
0 9 -13 20 -30 27 -18 6 -28 6 -25 1z"/>
<path d="M6887 299 c7 -7 15 -10 18 -7 3 3 -2 9 -12 12 -14 6 -15 5 -6 -5z"/>
<path d="M0 201 c0 -49 1 -51 28 -51 30 0 52 -16 52 -37 0 -7 -18 -23 -40 -35
-31 -18 -40 -29 -40 -50 l0 -28 403 0 c436 1 437 1 290 49 -32 11 -83 29 -113
40 -30 12 -82 28 -115 35 -90 20 -368 96 -385 105 -9 5 -30 12 -48 16 l-32 7
0 -51z m116 -165 c19 -20 18 -26 -5 -26 -22 0 -35 15 -26 30 8 13 14 13 31 -4z"/>
<path d="M1900 100 c-8 -5 -25 -10 -37 -10 -13 0 -23 -4 -23 -10 0 -13 10 -13
49 1 17 6 31 15 31 20 0 11 -1 11 -20 -1z"/>
<path d="M1775 60 c-4 -7 3 -8 22 -4 38 9 42 14 10 14 -14 0 -29 -5 -32 -10z"/>
<path d="M5138 23 c7 -3 16 -2 19 1 4 3 -2 6 -13 5 -11 0 -14 -3 -6 -6z"/>
</g>
</svg>
